SplineFontDB: 3.2
FontName: LCD1602
FullName: LCD1602
FamilyName: LCD1602
Weight: Regular
Copyright: Copyright (c) 2022, Alan Harper
UComments: "2022-12-15: Created with FontForge (http://fontforge.org)"
Version: 001.000
ItalicAngle: 0
UnderlinePosition: -100
UnderlineWidth: 50
Ascent: 640
Descent: 160
InvalidEm: 0
LayerCount: 2
Layer: 0 0 "Back" 1
Layer: 1 0 "Fore" 0
XUID: [1021 431 -1706424700 12325823]
StyleMap: 0x0000
FSType: 0
OS2Version: 0
OS2_WeightWidthSlopeOnly: 0
OS2_UseTypoMetrics: 1
CreationTime: 1671095809
ModificationTime: 1671096677
PfmFamily: 17
TTFWeight: 400
TTFWidth: 5
LineGap: 90
VLineGap: 0
OS2TypoAscent: 0
OS2TypoAOffset: 1
OS2TypoDescent: 0
OS2TypoDOffset: 1
OS2TypoLinegap: 90
OS2WinAscent: 0
OS2WinAOffset: 1
OS2WinDescent: 0
OS2WinDOffset: 1
HheadAscent: 0
HheadAOffset: 1
HheadDescent: 0
HheadDOffset: 1
OS2Vendor: 'PfEd'
MarkAttachClasses: 1
DEI: 91125
LangName: 1033
Encoding: UnicodeBmp
UnicodeInterp: none
NameList: AGL For New Fonts
DisplaySize: -48
AntiAlias: 1
FitToEm: 0
WinInfo: 37 37 16
BeginPrivate: 0
EndPrivate
TeXData: 1 0 0 697303 348652 232434 563085 1048576 232434 783286 444596 497025 792723 393216 433062 380633 303038 157286 324010 404750 52429 2506097 1059062 262144
BeginChars: 65536 94

StartChar: zero
Encoding: 48 48 0
Width: 600
Flags: HW
LayerCount: 2
Fore
SplineSet
160 630 m 1
 240 630 l 1
 240 550 l 1
 160 550 l 1
 160 630 l 1
260 630 m 1
 340 630 l 1
 340 550 l 1
 260 550 l 1
 260 630 l 1
360 630 m 1
 440 630 l 1
 440 550 l 1
 360 550 l 1
 360 630 l 1
60 530 m 1
 140 530 l 1
 140 450 l 1
 60 450 l 1
 60 530 l 1
460 530 m 1
 540 530 l 1
 540 450 l 1
 460 450 l 1
 460 530 l 1
60 430 m 1
 140 430 l 1
 140 350 l 1
 60 350 l 1
 60 430 l 1
360 430 m 1
 440 430 l 1
 440 350 l 1
 360 350 l 1
 360 430 l 1
460 430 m 1
 540 430 l 1
 540 350 l 1
 460 350 l 1
 460 430 l 1
60 330 m 1
 140 330 l 1
 140 250 l 1
 60 250 l 1
 60 330 l 1
260 330 m 1
 340 330 l 1
 340 250 l 1
 260 250 l 1
 260 330 l 1
460 330 m 1
 540 330 l 1
 540 250 l 1
 460 250 l 1
 460 330 l 1
60 230 m 1
 140 230 l 1
 140 150 l 1
 60 150 l 1
 60 230 l 1
160 230 m 1
 240 230 l 1
 240 150 l 1
 160 150 l 1
 160 230 l 1
460 230 m 1
 540 230 l 1
 540 150 l 1
 460 150 l 1
 460 230 l 1
60 130 m 1
 140 130 l 1
 140 50 l 1
 60 50 l 1
 60 130 l 1
460 130 m 1
 540 130 l 1
 540 50 l 1
 460 50 l 1
 460 130 l 1
160 30 m 1
 240 30 l 1
 240 -50 l 1
 160 -50 l 1
 160 30 l 1
260 30 m 1
 340 30 l 1
 340 -50 l 1
 260 -50 l 1
 260 30 l 1
360 30 m 1
 440 30 l 1
 440 -50 l 1
 360 -50 l 1
 360 30 l 1
EndSplineSet
EndChar

StartChar: one
Encoding: 49 49 1
Width: 600
Flags: HW
LayerCount: 2
Fore
SplineSet
260 630 m 1
 340 630 l 1
 340 550 l 1
 260 550 l 1
 260 630 l 1
160 530 m 1
 240 530 l 1
 240 450 l 1
 160 450 l 1
 160 530 l 1
260 530 m 1
 340 530 l 1
 340 450 l 1
 260 450 l 1
 260 530 l 1
260 430 m 1
 340 430 l 1
 340 350 l 1
 260 350 l 1
 260 430 l 1
260 330 m 1
 340 330 l 1
 340 250 l 1
 260 250 l 1
 260 330 l 1
260 230 m 1
 340 230 l 1
 340 150 l 1
 260 150 l 1
 260 230 l 1
260 130 m 1
 340 130 l 1
 340 50 l 1
 260 50 l 1
 260 130 l 1
160 30 m 1
 240 30 l 1
 240 -50 l 1
 160 -50 l 1
 160 30 l 1
260 30 m 1
 340 30 l 1
 340 -50 l 1
 260 -50 l 1
 260 30 l 1
360 30 m 1
 440 30 l 1
 440 -50 l 1
 360 -50 l 1
 360 30 l 1
EndSplineSet
EndChar

StartChar: two
Encoding: 50 50 2
Width: 600
Flags: HW
LayerCount: 2
Fore
SplineSet
160 630 m 1
 240 630 l 1
 240 550 l 1
 160 550 l 1
 160 630 l 1
260 630 m 1
 340 630 l 1
 340 550 l 1
 260 550 l 1
 260 630 l 1
360 630 m 1
 440 630 l 1
 440 550 l 1
 360 550 l 1
 360 630 l 1
60 530 m 1
 140 530 l 1
 140 450 l 1
 60 450 l 1
 60 530 l 1
460 530 m 1
 540 530 l 1
 540 450 l 1
 460 450 l 1
 460 530 l 1
460 430 m 1
 540 430 l 1
 540 350 l 1
 460 350 l 1
 460 430 l 1
360 330 m 1
 440 330 l 1
 440 250 l 1
 360 250 l 1
 360 330 l 1
260 230 m 1
 340 230 l 1
 340 150 l 1
 260 150 l 1
 260 230 l 1
160 130 m 1
 240 130 l 1
 240 50 l 1
 160 50 l 1
 160 130 l 1
60 30 m 1
 140 30 l 1
 140 -50 l 1
 60 -50 l 1
 60 30 l 1
160 30 m 1
 240 30 l 1
 240 -50 l 1
 160 -50 l 1
 160 30 l 1
260 30 m 1
 340 30 l 1
 340 -50 l 1
 260 -50 l 1
 260 30 l 1
360 30 m 1
 440 30 l 1
 440 -50 l 1
 360 -50 l 1
 360 30 l 1
460 30 m 1
 540 30 l 1
 540 -50 l 1
 460 -50 l 1
 460 30 l 1
EndSplineSet
EndChar

StartChar: three
Encoding: 51 51 3
Width: 600
Flags: HW
LayerCount: 2
Fore
SplineSet
60 630 m 1
 140 630 l 1
 140 550 l 1
 60 550 l 1
 60 630 l 1
160 630 m 1
 240 630 l 1
 240 550 l 1
 160 550 l 1
 160 630 l 1
260 630 m 1
 340 630 l 1
 340 550 l 1
 260 550 l 1
 260 630 l 1
360 630 m 1
 440 630 l 1
 440 550 l 1
 360 550 l 1
 360 630 l 1
460 630 m 1
 540 630 l 1
 540 550 l 1
 460 550 l 1
 460 630 l 1
360 530 m 1
 440 530 l 1
 440 450 l 1
 360 450 l 1
 360 530 l 1
260 430 m 1
 340 430 l 1
 340 350 l 1
 260 350 l 1
 260 430 l 1
360 330 m 1
 440 330 l 1
 440 250 l 1
 360 250 l 1
 360 330 l 1
460 230 m 1
 540 230 l 1
 540 150 l 1
 460 150 l 1
 460 230 l 1
60 130 m 1
 140 130 l 1
 140 50 l 1
 60 50 l 1
 60 130 l 1
460 130 m 1
 540 130 l 1
 540 50 l 1
 460 50 l 1
 460 130 l 1
160 30 m 1
 240 30 l 1
 240 -50 l 1
 160 -50 l 1
 160 30 l 1
260 30 m 1
 340 30 l 1
 340 -50 l 1
 260 -50 l 1
 260 30 l 1
360 30 m 1
 440 30 l 1
 440 -50 l 1
 360 -50 l 1
 360 30 l 1
EndSplineSet
EndChar

StartChar: four
Encoding: 52 52 4
Width: 600
Flags: HW
LayerCount: 2
Fore
SplineSet
360 630 m 1
 440 630 l 1
 440 550 l 1
 360 550 l 1
 360 630 l 1
260 530 m 1
 340 530 l 1
 340 450 l 1
 260 450 l 1
 260 530 l 1
360 530 m 1
 440 530 l 1
 440 450 l 1
 360 450 l 1
 360 530 l 1
160 430 m 1
 240 430 l 1
 240 350 l 1
 160 350 l 1
 160 430 l 1
360 430 m 1
 440 430 l 1
 440 350 l 1
 360 350 l 1
 360 430 l 1
60 330 m 1
 140 330 l 1
 140 250 l 1
 60 250 l 1
 60 330 l 1
360 330 m 1
 440 330 l 1
 440 250 l 1
 360 250 l 1
 360 330 l 1
60 230 m 1
 140 230 l 1
 140 150 l 1
 60 150 l 1
 60 230 l 1
160 230 m 1
 240 230 l 1
 240 150 l 1
 160 150 l 1
 160 230 l 1
260 230 m 1
 340 230 l 1
 340 150 l 1
 260 150 l 1
 260 230 l 1
360 230 m 1
 440 230 l 1
 440 150 l 1
 360 150 l 1
 360 230 l 1
460 230 m 1
 540 230 l 1
 540 150 l 1
 460 150 l 1
 460 230 l 1
360 130 m 1
 440 130 l 1
 440 50 l 1
 360 50 l 1
 360 130 l 1
360 30 m 1
 440 30 l 1
 440 -50 l 1
 360 -50 l 1
 360 30 l 1
EndSplineSet
EndChar

StartChar: five
Encoding: 53 53 5
Width: 600
Flags: HW
LayerCount: 2
Fore
SplineSet
60 630 m 1
 140 630 l 1
 140 550 l 1
 60 550 l 1
 60 630 l 1
160 630 m 1
 240 630 l 1
 240 550 l 1
 160 550 l 1
 160 630 l 1
260 630 m 1
 340 630 l 1
 340 550 l 1
 260 550 l 1
 260 630 l 1
360 630 m 1
 440 630 l 1
 440 550 l 1
 360 550 l 1
 360 630 l 1
460 630 m 1
 540 630 l 1
 540 550 l 1
 460 550 l 1
 460 630 l 1
60 530 m 1
 140 530 l 1
 140 450 l 1
 60 450 l 1
 60 530 l 1
60 430 m 1
 140 430 l 1
 140 350 l 1
 60 350 l 1
 60 430 l 1
160 430 m 1
 240 430 l 1
 240 350 l 1
 160 350 l 1
 160 430 l 1
260 430 m 1
 340 430 l 1
 340 350 l 1
 260 350 l 1
 260 430 l 1
360 430 m 1
 440 430 l 1
 440 350 l 1
 360 350 l 1
 360 430 l 1
460 330 m 1
 540 330 l 1
 540 250 l 1
 460 250 l 1
 460 330 l 1
460 230 m 1
 540 230 l 1
 540 150 l 1
 460 150 l 1
 460 230 l 1
60 130 m 1
 140 130 l 1
 140 50 l 1
 60 50 l 1
 60 130 l 1
460 130 m 1
 540 130 l 1
 540 50 l 1
 460 50 l 1
 460 130 l 1
160 30 m 1
 240 30 l 1
 240 -50 l 1
 160 -50 l 1
 160 30 l 1
260 30 m 1
 340 30 l 1
 340 -50 l 1
 260 -50 l 1
 260 30 l 1
360 30 m 1
 440 30 l 1
 440 -50 l 1
 360 -50 l 1
 360 30 l 1
EndSplineSet
EndChar

StartChar: six
Encoding: 54 54 6
Width: 600
Flags: HW
LayerCount: 2
Fore
SplineSet
260 630 m 1
 340 630 l 1
 340 550 l 1
 260 550 l 1
 260 630 l 1
360 630 m 1
 440 630 l 1
 440 550 l 1
 360 550 l 1
 360 630 l 1
160 530 m 1
 240 530 l 1
 240 450 l 1
 160 450 l 1
 160 530 l 1
60 430 m 1
 140 430 l 1
 140 350 l 1
 60 350 l 1
 60 430 l 1
60 330 m 1
 140 330 l 1
 140 250 l 1
 60 250 l 1
 60 330 l 1
160 330 m 1
 240 330 l 1
 240 250 l 1
 160 250 l 1
 160 330 l 1
260 330 m 1
 340 330 l 1
 340 250 l 1
 260 250 l 1
 260 330 l 1
360 330 m 1
 440 330 l 1
 440 250 l 1
 360 250 l 1
 360 330 l 1
60 230 m 1
 140 230 l 1
 140 150 l 1
 60 150 l 1
 60 230 l 1
460 230 m 1
 540 230 l 1
 540 150 l 1
 460 150 l 1
 460 230 l 1
60 130 m 1
 140 130 l 1
 140 50 l 1
 60 50 l 1
 60 130 l 1
460 130 m 1
 540 130 l 1
 540 50 l 1
 460 50 l 1
 460 130 l 1
160 30 m 1
 240 30 l 1
 240 -50 l 1
 160 -50 l 1
 160 30 l 1
260 30 m 1
 340 30 l 1
 340 -50 l 1
 260 -50 l 1
 260 30 l 1
360 30 m 1
 440 30 l 1
 440 -50 l 1
 360 -50 l 1
 360 30 l 1
EndSplineSet
EndChar

StartChar: seven
Encoding: 55 55 7
Width: 600
Flags: HW
LayerCount: 2
Fore
SplineSet
60 630 m 1
 140 630 l 1
 140 550 l 1
 60 550 l 1
 60 630 l 1
160 630 m 1
 240 630 l 1
 240 550 l 1
 160 550 l 1
 160 630 l 1
260 630 m 1
 340 630 l 1
 340 550 l 1
 260 550 l 1
 260 630 l 1
360 630 m 1
 440 630 l 1
 440 550 l 1
 360 550 l 1
 360 630 l 1
460 630 m 1
 540 630 l 1
 540 550 l 1
 460 550 l 1
 460 630 l 1
460 530 m 1
 540 530 l 1
 540 450 l 1
 460 450 l 1
 460 530 l 1
360 430 m 1
 440 430 l 1
 440 350 l 1
 360 350 l 1
 360 430 l 1
260 330 m 1
 340 330 l 1
 340 250 l 1
 260 250 l 1
 260 330 l 1
160 230 m 1
 240 230 l 1
 240 150 l 1
 160 150 l 1
 160 230 l 1
160 130 m 1
 240 130 l 1
 240 50 l 1
 160 50 l 1
 160 130 l 1
160 30 m 1
 240 30 l 1
 240 -50 l 1
 160 -50 l 1
 160 30 l 1
EndSplineSet
EndChar

StartChar: eight
Encoding: 56 56 8
Width: 600
Flags: HW
LayerCount: 2
Fore
SplineSet
160 630 m 1
 240 630 l 1
 240 550 l 1
 160 550 l 1
 160 630 l 1
260 630 m 1
 340 630 l 1
 340 550 l 1
 260 550 l 1
 260 630 l 1
360 630 m 1
 440 630 l 1
 440 550 l 1
 360 550 l 1
 360 630 l 1
60 530 m 1
 140 530 l 1
 140 450 l 1
 60 450 l 1
 60 530 l 1
460 530 m 1
 540 530 l 1
 540 450 l 1
 460 450 l 1
 460 530 l 1
60 430 m 1
 140 430 l 1
 140 350 l 1
 60 350 l 1
 60 430 l 1
460 430 m 1
 540 430 l 1
 540 350 l 1
 460 350 l 1
 460 430 l 1
160 330 m 1
 240 330 l 1
 240 250 l 1
 160 250 l 1
 160 330 l 1
260 330 m 1
 340 330 l 1
 340 250 l 1
 260 250 l 1
 260 330 l 1
360 330 m 1
 440 330 l 1
 440 250 l 1
 360 250 l 1
 360 330 l 1
60 230 m 1
 140 230 l 1
 140 150 l 1
 60 150 l 1
 60 230 l 1
460 230 m 1
 540 230 l 1
 540 150 l 1
 460 150 l 1
 460 230 l 1
60 130 m 1
 140 130 l 1
 140 50 l 1
 60 50 l 1
 60 130 l 1
460 130 m 1
 540 130 l 1
 540 50 l 1
 460 50 l 1
 460 130 l 1
160 30 m 1
 240 30 l 1
 240 -50 l 1
 160 -50 l 1
 160 30 l 1
260 30 m 1
 340 30 l 1
 340 -50 l 1
 260 -50 l 1
 260 30 l 1
360 30 m 1
 440 30 l 1
 440 -50 l 1
 360 -50 l 1
 360 30 l 1
EndSplineSet
EndChar

StartChar: nine
Encoding: 57 57 9
Width: 600
Flags: HW
LayerCount: 2
Fore
SplineSet
160 630 m 1
 240 630 l 1
 240 550 l 1
 160 550 l 1
 160 630 l 1
260 630 m 1
 340 630 l 1
 340 550 l 1
 260 550 l 1
 260 630 l 1
360 630 m 1
 440 630 l 1
 440 550 l 1
 360 550 l 1
 360 630 l 1
60 530 m 1
 140 530 l 1
 140 450 l 1
 60 450 l 1
 60 530 l 1
460 530 m 1
 540 530 l 1
 540 450 l 1
 460 450 l 1
 460 530 l 1
60 430 m 1
 140 430 l 1
 140 350 l 1
 60 350 l 1
 60 430 l 1
460 430 m 1
 540 430 l 1
 540 350 l 1
 460 350 l 1
 460 430 l 1
160 330 m 1
 240 330 l 1
 240 250 l 1
 160 250 l 1
 160 330 l 1
260 330 m 1
 340 330 l 1
 340 250 l 1
 260 250 l 1
 260 330 l 1
360 330 m 1
 440 330 l 1
 440 250 l 1
 360 250 l 1
 360 330 l 1
460 330 m 1
 540 330 l 1
 540 250 l 1
 460 250 l 1
 460 330 l 1
460 230 m 1
 540 230 l 1
 540 150 l 1
 460 150 l 1
 460 230 l 1
360 130 m 1
 440 130 l 1
 440 50 l 1
 360 50 l 1
 360 130 l 1
160 30 m 1
 240 30 l 1
 240 -50 l 1
 160 -50 l 1
 160 30 l 1
260 30 m 1
 340 30 l 1
 340 -50 l 1
 260 -50 l 1
 260 30 l 1
EndSplineSet
EndChar

StartChar: exclam
Encoding: 33 33 10
Width: 600
Flags: HW
LayerCount: 2
Fore
SplineSet
260 630 m 1
 340 630 l 1
 340 550 l 1
 260 550 l 1
 260 630 l 1
260 530 m 1
 340 530 l 1
 340 450 l 1
 260 450 l 1
 260 530 l 1
260 430 m 1
 340 430 l 1
 340 350 l 1
 260 350 l 1
 260 430 l 1
260 330 m 1
 340 330 l 1
 340 250 l 1
 260 250 l 1
 260 330 l 1
260 30 m 1
 340 30 l 1
 340 -50 l 1
 260 -50 l 1
 260 30 l 1
EndSplineSet
EndChar

StartChar: quotedbl
Encoding: 34 34 11
Width: 600
Flags: HW
LayerCount: 2
Fore
SplineSet
160 630 m 1
 240 630 l 1
 240 550 l 1
 160 550 l 1
 160 630 l 1
360 630 m 1
 440 630 l 1
 440 550 l 1
 360 550 l 1
 360 630 l 1
160 530 m 1
 240 530 l 1
 240 450 l 1
 160 450 l 1
 160 530 l 1
360 530 m 1
 440 530 l 1
 440 450 l 1
 360 450 l 1
 360 530 l 1
160 430 m 1
 240 430 l 1
 240 350 l 1
 160 350 l 1
 160 430 l 1
360 430 m 1
 440 430 l 1
 440 350 l 1
 360 350 l 1
 360 430 l 1
160 330 m 1
 240 330 l 1
 240 250 l 1
 160 250 l 1
 160 330 l 1
360 330 m 1
 440 330 l 1
 440 250 l 1
 360 250 l 1
 360 330 l 1
EndSplineSet
EndChar

StartChar: numbersign
Encoding: 35 35 12
Width: 600
Flags: HW
LayerCount: 2
Fore
SplineSet
160 630 m 1
 240 630 l 1
 240 550 l 1
 160 550 l 1
 160 630 l 1
360 630 m 1
 440 630 l 1
 440 550 l 1
 360 550 l 1
 360 630 l 1
160 530 m 1
 240 530 l 1
 240 450 l 1
 160 450 l 1
 160 530 l 1
360 530 m 1
 440 530 l 1
 440 450 l 1
 360 450 l 1
 360 530 l 1
60 430 m 1
 140 430 l 1
 140 350 l 1
 60 350 l 1
 60 430 l 1
160 430 m 1
 240 430 l 1
 240 350 l 1
 160 350 l 1
 160 430 l 1
260 430 m 1
 340 430 l 1
 340 350 l 1
 260 350 l 1
 260 430 l 1
360 430 m 1
 440 430 l 1
 440 350 l 1
 360 350 l 1
 360 430 l 1
460 430 m 1
 540 430 l 1
 540 350 l 1
 460 350 l 1
 460 430 l 1
160 330 m 1
 240 330 l 1
 240 250 l 1
 160 250 l 1
 160 330 l 1
360 330 m 1
 440 330 l 1
 440 250 l 1
 360 250 l 1
 360 330 l 1
60 230 m 1
 140 230 l 1
 140 150 l 1
 60 150 l 1
 60 230 l 1
160 230 m 1
 240 230 l 1
 240 150 l 1
 160 150 l 1
 160 230 l 1
260 230 m 1
 340 230 l 1
 340 150 l 1
 260 150 l 1
 260 230 l 1
360 230 m 1
 440 230 l 1
 440 150 l 1
 360 150 l 1
 360 230 l 1
460 230 m 1
 540 230 l 1
 540 150 l 1
 460 150 l 1
 460 230 l 1
160 130 m 1
 240 130 l 1
 240 50 l 1
 160 50 l 1
 160 130 l 1
360 130 m 1
 440 130 l 1
 440 50 l 1
 360 50 l 1
 360 130 l 1
160 30 m 1
 240 30 l 1
 240 -50 l 1
 160 -50 l 1
 160 30 l 1
360 30 m 1
 440 30 l 1
 440 -50 l 1
 360 -50 l 1
 360 30 l 1
EndSplineSet
EndChar

StartChar: dollar
Encoding: 36 36 13
Width: 600
Flags: HW
LayerCount: 2
Fore
SplineSet
260 630 m 1
 340 630 l 1
 340 550 l 1
 260 550 l 1
 260 630 l 1
160 530 m 1
 240 530 l 1
 240 450 l 1
 160 450 l 1
 160 530 l 1
260 530 m 1
 340 530 l 1
 340 450 l 1
 260 450 l 1
 260 530 l 1
360 530 m 1
 440 530 l 1
 440 450 l 1
 360 450 l 1
 360 530 l 1
460 530 m 1
 540 530 l 1
 540 450 l 1
 460 450 l 1
 460 530 l 1
60 430 m 1
 140 430 l 1
 140 350 l 1
 60 350 l 1
 60 430 l 1
260 430 m 1
 340 430 l 1
 340 350 l 1
 260 350 l 1
 260 430 l 1
160 330 m 1
 240 330 l 1
 240 250 l 1
 160 250 l 1
 160 330 l 1
260 330 m 1
 340 330 l 1
 340 250 l 1
 260 250 l 1
 260 330 l 1
360 330 m 1
 440 330 l 1
 440 250 l 1
 360 250 l 1
 360 330 l 1
260 230 m 1
 340 230 l 1
 340 150 l 1
 260 150 l 1
 260 230 l 1
460 230 m 1
 540 230 l 1
 540 150 l 1
 460 150 l 1
 460 230 l 1
60 130 m 1
 140 130 l 1
 140 50 l 1
 60 50 l 1
 60 130 l 1
160 130 m 1
 240 130 l 1
 240 50 l 1
 160 50 l 1
 160 130 l 1
260 130 m 1
 340 130 l 1
 340 50 l 1
 260 50 l 1
 260 130 l 1
360 130 m 1
 440 130 l 1
 440 50 l 1
 360 50 l 1
 360 130 l 1
260 30 m 1
 340 30 l 1
 340 -50 l 1
 260 -50 l 1
 260 30 l 1
EndSplineSet
EndChar

StartChar: percent
Encoding: 37 37 14
Width: 600
Flags: HW
LayerCount: 2
Fore
SplineSet
60 630 m 1
 140 630 l 1
 140 550 l 1
 60 550 l 1
 60 630 l 1
160 630 m 1
 240 630 l 1
 240 550 l 1
 160 550 l 1
 160 630 l 1
60 530 m 1
 140 530 l 1
 140 450 l 1
 60 450 l 1
 60 530 l 1
160 530 m 1
 240 530 l 1
 240 450 l 1
 160 450 l 1
 160 530 l 1
460 530 m 1
 540 530 l 1
 540 450 l 1
 460 450 l 1
 460 530 l 1
360 430 m 1
 440 430 l 1
 440 350 l 1
 360 350 l 1
 360 430 l 1
260 330 m 1
 340 330 l 1
 340 250 l 1
 260 250 l 1
 260 330 l 1
160 230 m 1
 240 230 l 1
 240 150 l 1
 160 150 l 1
 160 230 l 1
60 130 m 1
 140 130 l 1
 140 50 l 1
 60 50 l 1
 60 130 l 1
360 130 m 1
 440 130 l 1
 440 50 l 1
 360 50 l 1
 360 130 l 1
460 130 m 1
 540 130 l 1
 540 50 l 1
 460 50 l 1
 460 130 l 1
360 30 m 1
 440 30 l 1
 440 -50 l 1
 360 -50 l 1
 360 30 l 1
460 30 m 1
 540 30 l 1
 540 -50 l 1
 460 -50 l 1
 460 30 l 1
EndSplineSet
EndChar

StartChar: ampersand
Encoding: 38 38 15
Width: 600
Flags: HW
LayerCount: 2
Fore
SplineSet
160 630 m 1
 240 630 l 1
 240 550 l 1
 160 550 l 1
 160 630 l 1
260 630 m 1
 340 630 l 1
 340 550 l 1
 260 550 l 1
 260 630 l 1
60 530 m 1
 140 530 l 1
 140 450 l 1
 60 450 l 1
 60 530 l 1
360 530 m 1
 440 530 l 1
 440 450 l 1
 360 450 l 1
 360 530 l 1
60 430 m 1
 140 430 l 1
 140 350 l 1
 60 350 l 1
 60 430 l 1
260 430 m 1
 340 430 l 1
 340 350 l 1
 260 350 l 1
 260 430 l 1
160 330 m 1
 240 330 l 1
 240 250 l 1
 160 250 l 1
 160 330 l 1
60 230 m 1
 140 230 l 1
 140 150 l 1
 60 150 l 1
 60 230 l 1
260 230 m 1
 340 230 l 1
 340 150 l 1
 260 150 l 1
 260 230 l 1
460 230 m 1
 540 230 l 1
 540 150 l 1
 460 150 l 1
 460 230 l 1
60 130 m 1
 140 130 l 1
 140 50 l 1
 60 50 l 1
 60 130 l 1
360 130 m 1
 440 130 l 1
 440 50 l 1
 360 50 l 1
 360 130 l 1
160 30 m 1
 240 30 l 1
 240 -50 l 1
 160 -50 l 1
 160 30 l 1
260 30 m 1
 340 30 l 1
 340 -50 l 1
 260 -50 l 1
 260 30 l 1
460 30 m 1
 540 30 l 1
 540 -50 l 1
 460 -50 l 1
 460 30 l 1
EndSplineSet
EndChar

StartChar: quotesingle
Encoding: 39 39 16
Width: 600
Flags: HW
LayerCount: 2
Fore
SplineSet
210 630 m 1
 290 630 l 1
 290 550 l 1
 210 550 l 1
 210 630 l 1
310 630 m 1
 390 630 l 1
 390 550 l 1
 310 550 l 1
 310 630 l 1
310 530 m 1
 390 530 l 1
 390 450 l 1
 310 450 l 1
 310 530 l 1
210 430 m 1
 290 430 l 1
 290 350 l 1
 210 350 l 1
 210 430 l 1
EndSplineSet
EndChar

StartChar: parenleft
Encoding: 40 40 17
Width: 600
Flags: HW
LayerCount: 2
Fore
SplineSet
360 630 m 1
 440 630 l 1
 440 550 l 1
 360 550 l 1
 360 630 l 1
260 530 m 1
 340 530 l 1
 340 450 l 1
 260 450 l 1
 260 530 l 1
160 430 m 1
 240 430 l 1
 240 350 l 1
 160 350 l 1
 160 430 l 1
160 330 m 1
 240 330 l 1
 240 250 l 1
 160 250 l 1
 160 330 l 1
160 230 m 1
 240 230 l 1
 240 150 l 1
 160 150 l 1
 160 230 l 1
260 130 m 1
 340 130 l 1
 340 50 l 1
 260 50 l 1
 260 130 l 1
360 30 m 1
 440 30 l 1
 440 -50 l 1
 360 -50 l 1
 360 30 l 1
EndSplineSet
EndChar

StartChar: parenright
Encoding: 41 41 18
Width: 600
Flags: HW
LayerCount: 2
Fore
SplineSet
160 630 m 1
 240 630 l 1
 240 550 l 1
 160 550 l 1
 160 630 l 1
260 530 m 1
 340 530 l 1
 340 450 l 1
 260 450 l 1
 260 530 l 1
360 430 m 1
 440 430 l 1
 440 350 l 1
 360 350 l 1
 360 430 l 1
360 330 m 1
 440 330 l 1
 440 250 l 1
 360 250 l 1
 360 330 l 1
360 230 m 1
 440 230 l 1
 440 150 l 1
 360 150 l 1
 360 230 l 1
260 130 m 1
 340 130 l 1
 340 50 l 1
 260 50 l 1
 260 130 l 1
160 30 m 1
 240 30 l 1
 240 -50 l 1
 160 -50 l 1
 160 30 l 1
EndSplineSet
EndChar

StartChar: asterisk
Encoding: 42 42 19
Width: 600
Flags: HW
LayerCount: 2
Fore
SplineSet
260 530 m 1
 340 530 l 1
 340 450 l 1
 260 450 l 1
 260 530 l 1
60 430 m 1
 140 430 l 1
 140 350 l 1
 60 350 l 1
 60 430 l 1
260 430 m 1
 340 430 l 1
 340 350 l 1
 260 350 l 1
 260 430 l 1
460 430 m 1
 540 430 l 1
 540 350 l 1
 460 350 l 1
 460 430 l 1
160 330 m 1
 240 330 l 1
 240 250 l 1
 160 250 l 1
 160 330 l 1
260 330 m 1
 340 330 l 1
 340 250 l 1
 260 250 l 1
 260 330 l 1
360 330 m 1
 440 330 l 1
 440 250 l 1
 360 250 l 1
 360 330 l 1
60 230 m 1
 140 230 l 1
 140 150 l 1
 60 150 l 1
 60 230 l 1
260 230 m 1
 340 230 l 1
 340 150 l 1
 260 150 l 1
 260 230 l 1
460 230 m 1
 540 230 l 1
 540 150 l 1
 460 150 l 1
 460 230 l 1
260 130 m 1
 340 130 l 1
 340 50 l 1
 260 50 l 1
 260 130 l 1
EndSplineSet
EndChar

StartChar: plus
Encoding: 43 43 20
Width: 600
Flags: HW
LayerCount: 2
Fore
SplineSet
260 530 m 1
 340 530 l 1
 340 450 l 1
 260 450 l 1
 260 530 l 1
260 430 m 1
 340 430 l 1
 340 350 l 1
 260 350 l 1
 260 430 l 1
60 330 m 1
 140 330 l 1
 140 250 l 1
 60 250 l 1
 60 330 l 1
160 330 m 1
 240 330 l 1
 240 250 l 1
 160 250 l 1
 160 330 l 1
260 330 m 1
 340 330 l 1
 340 250 l 1
 260 250 l 1
 260 330 l 1
360 330 m 1
 440 330 l 1
 440 250 l 1
 360 250 l 1
 360 330 l 1
460 330 m 1
 540 330 l 1
 540 250 l 1
 460 250 l 1
 460 330 l 1
260 230 m 1
 340 230 l 1
 340 150 l 1
 260 150 l 1
 260 230 l 1
260 130 m 1
 340 130 l 1
 340 50 l 1
 260 50 l 1
 260 130 l 1
EndSplineSet
EndChar

StartChar: comma
Encoding: 44 44 21
Width: 600
Flags: HW
LayerCount: 2
Fore
SplineSet
210 230 m 1
 290 230 l 1
 290 150 l 1
 210 150 l 1
 210 230 l 1
310 230 m 1
 390 230 l 1
 390 150 l 1
 310 150 l 1
 310 230 l 1
310 130 m 1
 390 130 l 1
 390 50 l 1
 310 50 l 1
 310 130 l 1
210 30 m 1
 290 30 l 1
 290 -50 l 1
 210 -50 l 1
 210 30 l 1
EndSplineSet
EndChar

StartChar: hyphen
Encoding: 45 45 22
Width: 600
Flags: HW
LayerCount: 2
Fore
SplineSet
60 330 m 1
 140 330 l 1
 140 250 l 1
 60 250 l 1
 60 330 l 1
160 330 m 1
 240 330 l 1
 240 250 l 1
 160 250 l 1
 160 330 l 1
260 330 m 1
 340 330 l 1
 340 250 l 1
 260 250 l 1
 260 330 l 1
360 330 m 1
 440 330 l 1
 440 250 l 1
 360 250 l 1
 360 330 l 1
460 330 m 1
 540 330 l 1
 540 250 l 1
 460 250 l 1
 460 330 l 1
EndSplineSet
EndChar

StartChar: period
Encoding: 46 46 23
Width: 600
Flags: HW
LayerCount: 2
Fore
SplineSet
210 130 m 1
 290 130 l 1
 290 50 l 1
 210 50 l 1
 210 130 l 1
310 130 m 1
 390 130 l 1
 390 50 l 1
 310 50 l 1
 310 130 l 1
210 30 m 1
 290 30 l 1
 290 -50 l 1
 210 -50 l 1
 210 30 l 1
310 30 m 1
 390 30 l 1
 390 -50 l 1
 310 -50 l 1
 310 30 l 1
EndSplineSet
EndChar

StartChar: slash
Encoding: 47 47 24
Width: 600
Flags: HW
LayerCount: 2
Fore
SplineSet
460 530 m 1
 540 530 l 1
 540 450 l 1
 460 450 l 1
 460 530 l 1
360 430 m 1
 440 430 l 1
 440 350 l 1
 360 350 l 1
 360 430 l 1
260 330 m 1
 340 330 l 1
 340 250 l 1
 260 250 l 1
 260 330 l 1
160 230 m 1
 240 230 l 1
 240 150 l 1
 160 150 l 1
 160 230 l 1
60 130 m 1
 140 130 l 1
 140 50 l 1
 60 50 l 1
 60 130 l 1
EndSplineSet
EndChar

StartChar: colon
Encoding: 58 58 25
Width: 600
Flags: HW
LayerCount: 2
Fore
SplineSet
210 530 m 1
 290 530 l 1
 290 450 l 1
 210 450 l 1
 210 530 l 1
310 530 m 1
 390 530 l 1
 390 450 l 1
 310 450 l 1
 310 530 l 1
210 430 m 1
 290 430 l 1
 290 350 l 1
 210 350 l 1
 210 430 l 1
310 430 m 1
 390 430 l 1
 390 350 l 1
 310 350 l 1
 310 430 l 1
210 230 m 1
 290 230 l 1
 290 150 l 1
 210 150 l 1
 210 230 l 1
310 230 m 1
 390 230 l 1
 390 150 l 1
 310 150 l 1
 310 230 l 1
210 130 m 1
 290 130 l 1
 290 50 l 1
 210 50 l 1
 210 130 l 1
310 130 m 1
 390 130 l 1
 390 50 l 1
 310 50 l 1
 310 130 l 1
EndSplineSet
EndChar

StartChar: semicolon
Encoding: 59 59 26
Width: 600
Flags: HW
LayerCount: 2
Fore
SplineSet
210 530 m 1
 290 530 l 1
 290 450 l 1
 210 450 l 1
 210 530 l 1
310 530 m 1
 390 530 l 1
 390 450 l 1
 310 450 l 1
 310 530 l 1
210 430 m 1
 290 430 l 1
 290 350 l 1
 210 350 l 1
 210 430 l 1
310 430 m 1
 390 430 l 1
 390 350 l 1
 310 350 l 1
 310 430 l 1
210 230 m 1
 290 230 l 1
 290 150 l 1
 210 150 l 1
 210 230 l 1
310 230 m 1
 390 230 l 1
 390 150 l 1
 310 150 l 1
 310 230 l 1
310 130 m 1
 390 130 l 1
 390 50 l 1
 310 50 l 1
 310 130 l 1
210 30 m 1
 290 30 l 1
 290 -50 l 1
 210 -50 l 1
 210 30 l 1
EndSplineSet
EndChar

StartChar: less
Encoding: 60 60 27
Width: 600
Flags: HW
LayerCount: 2
Fore
SplineSet
410 630 m 1
 490 630 l 1
 490 550 l 1
 410 550 l 1
 410 630 l 1
310 530 m 1
 390 530 l 1
 390 450 l 1
 310 450 l 1
 310 530 l 1
210 430 m 1
 290 430 l 1
 290 350 l 1
 210 350 l 1
 210 430 l 1
110 330 m 1
 190 330 l 1
 190 250 l 1
 110 250 l 1
 110 330 l 1
210 230 m 1
 290 230 l 1
 290 150 l 1
 210 150 l 1
 210 230 l 1
310 130 m 1
 390 130 l 1
 390 50 l 1
 310 50 l 1
 310 130 l 1
410 30 m 1
 490 30 l 1
 490 -50 l 1
 410 -50 l 1
 410 30 l 1
EndSplineSet
EndChar

StartChar: equal
Encoding: 61 61 28
Width: 600
Flags: HW
LayerCount: 2
Fore
SplineSet
60 430 m 1
 140 430 l 1
 140 350 l 1
 60 350 l 1
 60 430 l 1
160 430 m 1
 240 430 l 1
 240 350 l 1
 160 350 l 1
 160 430 l 1
260 430 m 1
 340 430 l 1
 340 350 l 1
 260 350 l 1
 260 430 l 1
360 430 m 1
 440 430 l 1
 440 350 l 1
 360 350 l 1
 360 430 l 1
460 430 m 1
 540 430 l 1
 540 350 l 1
 460 350 l 1
 460 430 l 1
60 230 m 1
 140 230 l 1
 140 150 l 1
 60 150 l 1
 60 230 l 1
160 230 m 1
 240 230 l 1
 240 150 l 1
 160 150 l 1
 160 230 l 1
260 230 m 1
 340 230 l 1
 340 150 l 1
 260 150 l 1
 260 230 l 1
360 230 m 1
 440 230 l 1
 440 150 l 1
 360 150 l 1
 360 230 l 1
460 230 m 1
 540 230 l 1
 540 150 l 1
 460 150 l 1
 460 230 l 1
EndSplineSet
EndChar

StartChar: greater
Encoding: 62 62 29
Width: 600
Flags: HW
LayerCount: 2
Fore
SplineSet
110 630 m 1
 190 630 l 1
 190 550 l 1
 110 550 l 1
 110 630 l 1
210 530 m 1
 290 530 l 1
 290 450 l 1
 210 450 l 1
 210 530 l 1
310 430 m 1
 390 430 l 1
 390 350 l 1
 310 350 l 1
 310 430 l 1
410 330 m 1
 490 330 l 1
 490 250 l 1
 410 250 l 1
 410 330 l 1
310 230 m 1
 390 230 l 1
 390 150 l 1
 310 150 l 1
 310 230 l 1
210 130 m 1
 290 130 l 1
 290 50 l 1
 210 50 l 1
 210 130 l 1
110 30 m 1
 190 30 l 1
 190 -50 l 1
 110 -50 l 1
 110 30 l 1
EndSplineSet
EndChar

StartChar: question
Encoding: 63 63 30
Width: 600
Flags: HW
LayerCount: 2
Fore
SplineSet
160 630 m 1
 240 630 l 1
 240 550 l 1
 160 550 l 1
 160 630 l 1
260 630 m 1
 340 630 l 1
 340 550 l 1
 260 550 l 1
 260 630 l 1
360 630 m 1
 440 630 l 1
 440 550 l 1
 360 550 l 1
 360 630 l 1
60 530 m 1
 140 530 l 1
 140 450 l 1
 60 450 l 1
 60 530 l 1
460 530 m 1
 540 530 l 1
 540 450 l 1
 460 450 l 1
 460 530 l 1
460 430 m 1
 540 430 l 1
 540 350 l 1
 460 350 l 1
 460 430 l 1
360 330 m 1
 440 330 l 1
 440 250 l 1
 360 250 l 1
 360 330 l 1
260 230 m 1
 340 230 l 1
 340 150 l 1
 260 150 l 1
 260 230 l 1
260 30 m 1
 340 30 l 1
 340 -50 l 1
 260 -50 l 1
 260 30 l 1
EndSplineSet
EndChar

StartChar: at
Encoding: 64 64 31
Width: 600
Flags: HW
LayerCount: 2
Fore
SplineSet
160 630 m 1
 240 630 l 1
 240 550 l 1
 160 550 l 1
 160 630 l 1
260 630 m 1
 340 630 l 1
 340 550 l 1
 260 550 l 1
 260 630 l 1
360 630 m 1
 440 630 l 1
 440 550 l 1
 360 550 l 1
 360 630 l 1
60 530 m 1
 140 530 l 1
 140 450 l 1
 60 450 l 1
 60 530 l 1
460 530 m 1
 540 530 l 1
 540 450 l 1
 460 450 l 1
 460 530 l 1
460 430 m 1
 540 430 l 1
 540 350 l 1
 460 350 l 1
 460 430 l 1
160 330 m 1
 240 330 l 1
 240 250 l 1
 160 250 l 1
 160 330 l 1
260 330 m 1
 340 330 l 1
 340 250 l 1
 260 250 l 1
 260 330 l 1
460 330 m 1
 540 330 l 1
 540 250 l 1
 460 250 l 1
 460 330 l 1
60 230 m 1
 140 230 l 1
 140 150 l 1
 60 150 l 1
 60 230 l 1
260 230 m 1
 340 230 l 1
 340 150 l 1
 260 150 l 1
 260 230 l 1
460 230 m 1
 540 230 l 1
 540 150 l 1
 460 150 l 1
 460 230 l 1
60 130 m 1
 140 130 l 1
 140 50 l 1
 60 50 l 1
 60 130 l 1
260 130 m 1
 340 130 l 1
 340 50 l 1
 260 50 l 1
 260 130 l 1
460 130 m 1
 540 130 l 1
 540 50 l 1
 460 50 l 1
 460 130 l 1
160 30 m 1
 240 30 l 1
 240 -50 l 1
 160 -50 l 1
 160 30 l 1
260 30 m 1
 340 30 l 1
 340 -50 l 1
 260 -50 l 1
 260 30 l 1
360 30 m 1
 440 30 l 1
 440 -50 l 1
 360 -50 l 1
 360 30 l 1
EndSplineSet
EndChar

StartChar: A
Encoding: 65 65 32
Width: 600
Flags: HW
LayerCount: 2
Fore
SplineSet
160 630 m 1
 240 630 l 1
 240 550 l 1
 160 550 l 1
 160 630 l 1
260 630 m 1
 340 630 l 1
 340 550 l 1
 260 550 l 1
 260 630 l 1
360 630 m 1
 440 630 l 1
 440 550 l 1
 360 550 l 1
 360 630 l 1
60 530 m 1
 140 530 l 1
 140 450 l 1
 60 450 l 1
 60 530 l 1
460 530 m 1
 540 530 l 1
 540 450 l 1
 460 450 l 1
 460 530 l 1
60 430 m 1
 140 430 l 1
 140 350 l 1
 60 350 l 1
 60 430 l 1
460 430 m 1
 540 430 l 1
 540 350 l 1
 460 350 l 1
 460 430 l 1
60 330 m 1
 140 330 l 1
 140 250 l 1
 60 250 l 1
 60 330 l 1
460 330 m 1
 540 330 l 1
 540 250 l 1
 460 250 l 1
 460 330 l 1
60 230 m 1
 140 230 l 1
 140 150 l 1
 60 150 l 1
 60 230 l 1
160 230 m 1
 240 230 l 1
 240 150 l 1
 160 150 l 1
 160 230 l 1
260 230 m 1
 340 230 l 1
 340 150 l 1
 260 150 l 1
 260 230 l 1
360 230 m 1
 440 230 l 1
 440 150 l 1
 360 150 l 1
 360 230 l 1
460 230 m 1
 540 230 l 1
 540 150 l 1
 460 150 l 1
 460 230 l 1
60 130 m 1
 140 130 l 1
 140 50 l 1
 60 50 l 1
 60 130 l 1
460 130 m 1
 540 130 l 1
 540 50 l 1
 460 50 l 1
 460 130 l 1
60 30 m 1
 140 30 l 1
 140 -50 l 1
 60 -50 l 1
 60 30 l 1
460 30 m 1
 540 30 l 1
 540 -50 l 1
 460 -50 l 1
 460 30 l 1
EndSplineSet
EndChar

StartChar: B
Encoding: 66 66 33
Width: 600
Flags: HW
LayerCount: 2
Fore
SplineSet
60 630 m 1
 140 630 l 1
 140 550 l 1
 60 550 l 1
 60 630 l 1
160 630 m 1
 240 630 l 1
 240 550 l 1
 160 550 l 1
 160 630 l 1
260 630 m 1
 340 630 l 1
 340 550 l 1
 260 550 l 1
 260 630 l 1
360 630 m 1
 440 630 l 1
 440 550 l 1
 360 550 l 1
 360 630 l 1
60 530 m 1
 140 530 l 1
 140 450 l 1
 60 450 l 1
 60 530 l 1
460 530 m 1
 540 530 l 1
 540 450 l 1
 460 450 l 1
 460 530 l 1
60 430 m 1
 140 430 l 1
 140 350 l 1
 60 350 l 1
 60 430 l 1
460 430 m 1
 540 430 l 1
 540 350 l 1
 460 350 l 1
 460 430 l 1
60 330 m 1
 140 330 l 1
 140 250 l 1
 60 250 l 1
 60 330 l 1
160 330 m 1
 240 330 l 1
 240 250 l 1
 160 250 l 1
 160 330 l 1
260 330 m 1
 340 330 l 1
 340 250 l 1
 260 250 l 1
 260 330 l 1
360 330 m 1
 440 330 l 1
 440 250 l 1
 360 250 l 1
 360 330 l 1
60 230 m 1
 140 230 l 1
 140 150 l 1
 60 150 l 1
 60 230 l 1
460 230 m 1
 540 230 l 1
 540 150 l 1
 460 150 l 1
 460 230 l 1
60 130 m 1
 140 130 l 1
 140 50 l 1
 60 50 l 1
 60 130 l 1
460 130 m 1
 540 130 l 1
 540 50 l 1
 460 50 l 1
 460 130 l 1
60 30 m 1
 140 30 l 1
 140 -50 l 1
 60 -50 l 1
 60 30 l 1
160 30 m 1
 240 30 l 1
 240 -50 l 1
 160 -50 l 1
 160 30 l 1
260 30 m 1
 340 30 l 1
 340 -50 l 1
 260 -50 l 1
 260 30 l 1
360 30 m 1
 440 30 l 1
 440 -50 l 1
 360 -50 l 1
 360 30 l 1
EndSplineSet
EndChar

StartChar: C
Encoding: 67 67 34
Width: 600
Flags: HW
LayerCount: 2
Fore
SplineSet
160 630 m 1
 240 630 l 1
 240 550 l 1
 160 550 l 1
 160 630 l 1
260 630 m 1
 340 630 l 1
 340 550 l 1
 260 550 l 1
 260 630 l 1
360 630 m 1
 440 630 l 1
 440 550 l 1
 360 550 l 1
 360 630 l 1
60 530 m 1
 140 530 l 1
 140 450 l 1
 60 450 l 1
 60 530 l 1
460 530 m 1
 540 530 l 1
 540 450 l 1
 460 450 l 1
 460 530 l 1
60 430 m 1
 140 430 l 1
 140 350 l 1
 60 350 l 1
 60 430 l 1
60 330 m 1
 140 330 l 1
 140 250 l 1
 60 250 l 1
 60 330 l 1
60 230 m 1
 140 230 l 1
 140 150 l 1
 60 150 l 1
 60 230 l 1
60 130 m 1
 140 130 l 1
 140 50 l 1
 60 50 l 1
 60 130 l 1
460 130 m 1
 540 130 l 1
 540 50 l 1
 460 50 l 1
 460 130 l 1
160 30 m 1
 240 30 l 1
 240 -50 l 1
 160 -50 l 1
 160 30 l 1
260 30 m 1
 340 30 l 1
 340 -50 l 1
 260 -50 l 1
 260 30 l 1
360 30 m 1
 440 30 l 1
 440 -50 l 1
 360 -50 l 1
 360 30 l 1
EndSplineSet
EndChar

StartChar: D
Encoding: 68 68 35
Width: 600
Flags: HW
LayerCount: 2
Fore
SplineSet
60 630 m 1
 140 630 l 1
 140 550 l 1
 60 550 l 1
 60 630 l 1
160 630 m 1
 240 630 l 1
 240 550 l 1
 160 550 l 1
 160 630 l 1
260 630 m 1
 340 630 l 1
 340 550 l 1
 260 550 l 1
 260 630 l 1
60 530 m 1
 140 530 l 1
 140 450 l 1
 60 450 l 1
 60 530 l 1
360 530 m 1
 440 530 l 1
 440 450 l 1
 360 450 l 1
 360 530 l 1
60 430 m 1
 140 430 l 1
 140 350 l 1
 60 350 l 1
 60 430 l 1
460 430 m 1
 540 430 l 1
 540 350 l 1
 460 350 l 1
 460 430 l 1
60 330 m 1
 140 330 l 1
 140 250 l 1
 60 250 l 1
 60 330 l 1
460 330 m 1
 540 330 l 1
 540 250 l 1
 460 250 l 1
 460 330 l 1
60 230 m 1
 140 230 l 1
 140 150 l 1
 60 150 l 1
 60 230 l 1
460 230 m 1
 540 230 l 1
 540 150 l 1
 460 150 l 1
 460 230 l 1
60 130 m 1
 140 130 l 1
 140 50 l 1
 60 50 l 1
 60 130 l 1
360 130 m 1
 440 130 l 1
 440 50 l 1
 360 50 l 1
 360 130 l 1
60 30 m 1
 140 30 l 1
 140 -50 l 1
 60 -50 l 1
 60 30 l 1
160 30 m 1
 240 30 l 1
 240 -50 l 1
 160 -50 l 1
 160 30 l 1
260 30 m 1
 340 30 l 1
 340 -50 l 1
 260 -50 l 1
 260 30 l 1
EndSplineSet
EndChar

StartChar: E
Encoding: 69 69 36
Width: 600
Flags: HW
LayerCount: 2
Fore
SplineSet
60 630 m 1
 140 630 l 1
 140 550 l 1
 60 550 l 1
 60 630 l 1
160 630 m 1
 240 630 l 1
 240 550 l 1
 160 550 l 1
 160 630 l 1
260 630 m 1
 340 630 l 1
 340 550 l 1
 260 550 l 1
 260 630 l 1
360 630 m 1
 440 630 l 1
 440 550 l 1
 360 550 l 1
 360 630 l 1
460 630 m 1
 540 630 l 1
 540 550 l 1
 460 550 l 1
 460 630 l 1
60 530 m 1
 140 530 l 1
 140 450 l 1
 60 450 l 1
 60 530 l 1
60 430 m 1
 140 430 l 1
 140 350 l 1
 60 350 l 1
 60 430 l 1
60 330 m 1
 140 330 l 1
 140 250 l 1
 60 250 l 1
 60 330 l 1
160 330 m 1
 240 330 l 1
 240 250 l 1
 160 250 l 1
 160 330 l 1
260 330 m 1
 340 330 l 1
 340 250 l 1
 260 250 l 1
 260 330 l 1
360 330 m 1
 440 330 l 1
 440 250 l 1
 360 250 l 1
 360 330 l 1
60 230 m 1
 140 230 l 1
 140 150 l 1
 60 150 l 1
 60 230 l 1
60 130 m 1
 140 130 l 1
 140 50 l 1
 60 50 l 1
 60 130 l 1
60 30 m 1
 140 30 l 1
 140 -50 l 1
 60 -50 l 1
 60 30 l 1
160 30 m 1
 240 30 l 1
 240 -50 l 1
 160 -50 l 1
 160 30 l 1
260 30 m 1
 340 30 l 1
 340 -50 l 1
 260 -50 l 1
 260 30 l 1
360 30 m 1
 440 30 l 1
 440 -50 l 1
 360 -50 l 1
 360 30 l 1
460 30 m 1
 540 30 l 1
 540 -50 l 1
 460 -50 l 1
 460 30 l 1
EndSplineSet
EndChar

StartChar: F
Encoding: 70 70 37
Width: 600
Flags: HW
LayerCount: 2
Fore
SplineSet
60 630 m 1
 140 630 l 1
 140 550 l 1
 60 550 l 1
 60 630 l 1
160 630 m 1
 240 630 l 1
 240 550 l 1
 160 550 l 1
 160 630 l 1
260 630 m 1
 340 630 l 1
 340 550 l 1
 260 550 l 1
 260 630 l 1
360 630 m 1
 440 630 l 1
 440 550 l 1
 360 550 l 1
 360 630 l 1
460 630 m 1
 540 630 l 1
 540 550 l 1
 460 550 l 1
 460 630 l 1
60 530 m 1
 140 530 l 1
 140 450 l 1
 60 450 l 1
 60 530 l 1
60 430 m 1
 140 430 l 1
 140 350 l 1
 60 350 l 1
 60 430 l 1
60 330 m 1
 140 330 l 1
 140 250 l 1
 60 250 l 1
 60 330 l 1
160 330 m 1
 240 330 l 1
 240 250 l 1
 160 250 l 1
 160 330 l 1
260 330 m 1
 340 330 l 1
 340 250 l 1
 260 250 l 1
 260 330 l 1
360 330 m 1
 440 330 l 1
 440 250 l 1
 360 250 l 1
 360 330 l 1
60 230 m 1
 140 230 l 1
 140 150 l 1
 60 150 l 1
 60 230 l 1
60 130 m 1
 140 130 l 1
 140 50 l 1
 60 50 l 1
 60 130 l 1
60 30 m 1
 140 30 l 1
 140 -50 l 1
 60 -50 l 1
 60 30 l 1
EndSplineSet
EndChar

StartChar: G
Encoding: 71 71 38
Width: 600
Flags: HW
LayerCount: 2
Fore
SplineSet
160 630 m 1
 240 630 l 1
 240 550 l 1
 160 550 l 1
 160 630 l 1
260 630 m 1
 340 630 l 1
 340 550 l 1
 260 550 l 1
 260 630 l 1
360 630 m 1
 440 630 l 1
 440 550 l 1
 360 550 l 1
 360 630 l 1
60 530 m 1
 140 530 l 1
 140 450 l 1
 60 450 l 1
 60 530 l 1
460 530 m 1
 540 530 l 1
 540 450 l 1
 460 450 l 1
 460 530 l 1
60 430 m 1
 140 430 l 1
 140 350 l 1
 60 350 l 1
 60 430 l 1
60 330 m 1
 140 330 l 1
 140 250 l 1
 60 250 l 1
 60 330 l 1
260 330 m 1
 340 330 l 1
 340 250 l 1
 260 250 l 1
 260 330 l 1
360 330 m 1
 440 330 l 1
 440 250 l 1
 360 250 l 1
 360 330 l 1
460 330 m 1
 540 330 l 1
 540 250 l 1
 460 250 l 1
 460 330 l 1
60 230 m 1
 140 230 l 1
 140 150 l 1
 60 150 l 1
 60 230 l 1
460 230 m 1
 540 230 l 1
 540 150 l 1
 460 150 l 1
 460 230 l 1
60 130 m 1
 140 130 l 1
 140 50 l 1
 60 50 l 1
 60 130 l 1
460 130 m 1
 540 130 l 1
 540 50 l 1
 460 50 l 1
 460 130 l 1
160 30 m 1
 240 30 l 1
 240 -50 l 1
 160 -50 l 1
 160 30 l 1
260 30 m 1
 340 30 l 1
 340 -50 l 1
 260 -50 l 1
 260 30 l 1
360 30 m 1
 440 30 l 1
 440 -50 l 1
 360 -50 l 1
 360 30 l 1
460 30 m 1
 540 30 l 1
 540 -50 l 1
 460 -50 l 1
 460 30 l 1
EndSplineSet
EndChar

StartChar: H
Encoding: 72 72 39
Width: 600
Flags: HW
LayerCount: 2
Fore
SplineSet
60 630 m 1
 140 630 l 1
 140 550 l 1
 60 550 l 1
 60 630 l 1
460 630 m 1
 540 630 l 1
 540 550 l 1
 460 550 l 1
 460 630 l 1
60 530 m 1
 140 530 l 1
 140 450 l 1
 60 450 l 1
 60 530 l 1
460 530 m 1
 540 530 l 1
 540 450 l 1
 460 450 l 1
 460 530 l 1
60 430 m 1
 140 430 l 1
 140 350 l 1
 60 350 l 1
 60 430 l 1
460 430 m 1
 540 430 l 1
 540 350 l 1
 460 350 l 1
 460 430 l 1
60 330 m 1
 140 330 l 1
 140 250 l 1
 60 250 l 1
 60 330 l 1
160 330 m 1
 240 330 l 1
 240 250 l 1
 160 250 l 1
 160 330 l 1
260 330 m 1
 340 330 l 1
 340 250 l 1
 260 250 l 1
 260 330 l 1
360 330 m 1
 440 330 l 1
 440 250 l 1
 360 250 l 1
 360 330 l 1
460 330 m 1
 540 330 l 1
 540 250 l 1
 460 250 l 1
 460 330 l 1
60 230 m 1
 140 230 l 1
 140 150 l 1
 60 150 l 1
 60 230 l 1
460 230 m 1
 540 230 l 1
 540 150 l 1
 460 150 l 1
 460 230 l 1
60 130 m 1
 140 130 l 1
 140 50 l 1
 60 50 l 1
 60 130 l 1
460 130 m 1
 540 130 l 1
 540 50 l 1
 460 50 l 1
 460 130 l 1
60 30 m 1
 140 30 l 1
 140 -50 l 1
 60 -50 l 1
 60 30 l 1
460 30 m 1
 540 30 l 1
 540 -50 l 1
 460 -50 l 1
 460 30 l 1
EndSplineSet
EndChar

StartChar: I
Encoding: 73 73 40
Width: 600
Flags: HW
LayerCount: 2
Fore
SplineSet
160 630 m 1
 240 630 l 1
 240 550 l 1
 160 550 l 1
 160 630 l 1
260 630 m 1
 340 630 l 1
 340 550 l 1
 260 550 l 1
 260 630 l 1
360 630 m 1
 440 630 l 1
 440 550 l 1
 360 550 l 1
 360 630 l 1
260 530 m 1
 340 530 l 1
 340 450 l 1
 260 450 l 1
 260 530 l 1
260 430 m 1
 340 430 l 1
 340 350 l 1
 260 350 l 1
 260 430 l 1
260 330 m 1
 340 330 l 1
 340 250 l 1
 260 250 l 1
 260 330 l 1
260 230 m 1
 340 230 l 1
 340 150 l 1
 260 150 l 1
 260 230 l 1
260 130 m 1
 340 130 l 1
 340 50 l 1
 260 50 l 1
 260 130 l 1
160 30 m 1
 240 30 l 1
 240 -50 l 1
 160 -50 l 1
 160 30 l 1
260 30 m 1
 340 30 l 1
 340 -50 l 1
 260 -50 l 1
 260 30 l 1
360 30 m 1
 440 30 l 1
 440 -50 l 1
 360 -50 l 1
 360 30 l 1
EndSplineSet
EndChar

StartChar: J
Encoding: 74 74 41
Width: 600
Flags: HW
LayerCount: 2
Fore
SplineSet
260 630 m 1
 340 630 l 1
 340 550 l 1
 260 550 l 1
 260 630 l 1
360 630 m 1
 440 630 l 1
 440 550 l 1
 360 550 l 1
 360 630 l 1
460 630 m 1
 540 630 l 1
 540 550 l 1
 460 550 l 1
 460 630 l 1
360 530 m 1
 440 530 l 1
 440 450 l 1
 360 450 l 1
 360 530 l 1
360 430 m 1
 440 430 l 1
 440 350 l 1
 360 350 l 1
 360 430 l 1
360 330 m 1
 440 330 l 1
 440 250 l 1
 360 250 l 1
 360 330 l 1
360 230 m 1
 440 230 l 1
 440 150 l 1
 360 150 l 1
 360 230 l 1
60 130 m 1
 140 130 l 1
 140 50 l 1
 60 50 l 1
 60 130 l 1
360 130 m 1
 440 130 l 1
 440 50 l 1
 360 50 l 1
 360 130 l 1
160 30 m 1
 240 30 l 1
 240 -50 l 1
 160 -50 l 1
 160 30 l 1
260 30 m 1
 340 30 l 1
 340 -50 l 1
 260 -50 l 1
 260 30 l 1
EndSplineSet
EndChar

StartChar: K
Encoding: 75 75 42
Width: 600
Flags: HW
LayerCount: 2
Fore
SplineSet
60 630 m 1
 140 630 l 1
 140 550 l 1
 60 550 l 1
 60 630 l 1
460 630 m 1
 540 630 l 1
 540 550 l 1
 460 550 l 1
 460 630 l 1
60 530 m 1
 140 530 l 1
 140 450 l 1
 60 450 l 1
 60 530 l 1
360 530 m 1
 440 530 l 1
 440 450 l 1
 360 450 l 1
 360 530 l 1
60 430 m 1
 140 430 l 1
 140 350 l 1
 60 350 l 1
 60 430 l 1
260 430 m 1
 340 430 l 1
 340 350 l 1
 260 350 l 1
 260 430 l 1
60 330 m 1
 140 330 l 1
 140 250 l 1
 60 250 l 1
 60 330 l 1
160 330 m 1
 240 330 l 1
 240 250 l 1
 160 250 l 1
 160 330 l 1
60 230 m 1
 140 230 l 1
 140 150 l 1
 60 150 l 1
 60 230 l 1
260 230 m 1
 340 230 l 1
 340 150 l 1
 260 150 l 1
 260 230 l 1
60 130 m 1
 140 130 l 1
 140 50 l 1
 60 50 l 1
 60 130 l 1
360 130 m 1
 440 130 l 1
 440 50 l 1
 360 50 l 1
 360 130 l 1
60 30 m 1
 140 30 l 1
 140 -50 l 1
 60 -50 l 1
 60 30 l 1
460 30 m 1
 540 30 l 1
 540 -50 l 1
 460 -50 l 1
 460 30 l 1
EndSplineSet
EndChar

StartChar: L
Encoding: 76 76 43
Width: 600
Flags: HW
LayerCount: 2
Fore
SplineSet
60 630 m 1
 140 630 l 1
 140 550 l 1
 60 550 l 1
 60 630 l 1
60 530 m 1
 140 530 l 1
 140 450 l 1
 60 450 l 1
 60 530 l 1
60 430 m 1
 140 430 l 1
 140 350 l 1
 60 350 l 1
 60 430 l 1
60 330 m 1
 140 330 l 1
 140 250 l 1
 60 250 l 1
 60 330 l 1
60 230 m 1
 140 230 l 1
 140 150 l 1
 60 150 l 1
 60 230 l 1
60 130 m 1
 140 130 l 1
 140 50 l 1
 60 50 l 1
 60 130 l 1
60 30 m 1
 140 30 l 1
 140 -50 l 1
 60 -50 l 1
 60 30 l 1
160 30 m 1
 240 30 l 1
 240 -50 l 1
 160 -50 l 1
 160 30 l 1
260 30 m 1
 340 30 l 1
 340 -50 l 1
 260 -50 l 1
 260 30 l 1
360 30 m 1
 440 30 l 1
 440 -50 l 1
 360 -50 l 1
 360 30 l 1
460 30 m 1
 540 30 l 1
 540 -50 l 1
 460 -50 l 1
 460 30 l 1
EndSplineSet
EndChar

StartChar: M
Encoding: 77 77 44
Width: 600
Flags: HW
LayerCount: 2
Fore
SplineSet
60 630 m 1
 140 630 l 1
 140 550 l 1
 60 550 l 1
 60 630 l 1
460 630 m 1
 540 630 l 1
 540 550 l 1
 460 550 l 1
 460 630 l 1
60 530 m 1
 140 530 l 1
 140 450 l 1
 60 450 l 1
 60 530 l 1
160 530 m 1
 240 530 l 1
 240 450 l 1
 160 450 l 1
 160 530 l 1
360 530 m 1
 440 530 l 1
 440 450 l 1
 360 450 l 1
 360 530 l 1
460 530 m 1
 540 530 l 1
 540 450 l 1
 460 450 l 1
 460 530 l 1
60 430 m 1
 140 430 l 1
 140 350 l 1
 60 350 l 1
 60 430 l 1
260 430 m 1
 340 430 l 1
 340 350 l 1
 260 350 l 1
 260 430 l 1
460 430 m 1
 540 430 l 1
 540 350 l 1
 460 350 l 1
 460 430 l 1
60 330 m 1
 140 330 l 1
 140 250 l 1
 60 250 l 1
 60 330 l 1
260 330 m 1
 340 330 l 1
 340 250 l 1
 260 250 l 1
 260 330 l 1
460 330 m 1
 540 330 l 1
 540 250 l 1
 460 250 l 1
 460 330 l 1
60 230 m 1
 140 230 l 1
 140 150 l 1
 60 150 l 1
 60 230 l 1
460 230 m 1
 540 230 l 1
 540 150 l 1
 460 150 l 1
 460 230 l 1
60 130 m 1
 140 130 l 1
 140 50 l 1
 60 50 l 1
 60 130 l 1
460 130 m 1
 540 130 l 1
 540 50 l 1
 460 50 l 1
 460 130 l 1
60 30 m 1
 140 30 l 1
 140 -50 l 1
 60 -50 l 1
 60 30 l 1
460 30 m 1
 540 30 l 1
 540 -50 l 1
 460 -50 l 1
 460 30 l 1
EndSplineSet
EndChar

StartChar: N
Encoding: 78 78 45
Width: 600
Flags: HW
LayerCount: 2
Fore
SplineSet
60 630 m 1
 140 630 l 1
 140 550 l 1
 60 550 l 1
 60 630 l 1
460 630 m 1
 540 630 l 1
 540 550 l 1
 460 550 l 1
 460 630 l 1
60 530 m 1
 140 530 l 1
 140 450 l 1
 60 450 l 1
 60 530 l 1
460 530 m 1
 540 530 l 1
 540 450 l 1
 460 450 l 1
 460 530 l 1
60 430 m 1
 140 430 l 1
 140 350 l 1
 60 350 l 1
 60 430 l 1
160 430 m 1
 240 430 l 1
 240 350 l 1
 160 350 l 1
 160 430 l 1
460 430 m 1
 540 430 l 1
 540 350 l 1
 460 350 l 1
 460 430 l 1
60 330 m 1
 140 330 l 1
 140 250 l 1
 60 250 l 1
 60 330 l 1
260 330 m 1
 340 330 l 1
 340 250 l 1
 260 250 l 1
 260 330 l 1
460 330 m 1
 540 330 l 1
 540 250 l 1
 460 250 l 1
 460 330 l 1
60 230 m 1
 140 230 l 1
 140 150 l 1
 60 150 l 1
 60 230 l 1
360 230 m 1
 440 230 l 1
 440 150 l 1
 360 150 l 1
 360 230 l 1
460 230 m 1
 540 230 l 1
 540 150 l 1
 460 150 l 1
 460 230 l 1
60 130 m 1
 140 130 l 1
 140 50 l 1
 60 50 l 1
 60 130 l 1
460 130 m 1
 540 130 l 1
 540 50 l 1
 460 50 l 1
 460 130 l 1
60 30 m 1
 140 30 l 1
 140 -50 l 1
 60 -50 l 1
 60 30 l 1
460 30 m 1
 540 30 l 1
 540 -50 l 1
 460 -50 l 1
 460 30 l 1
EndSplineSet
EndChar

StartChar: O
Encoding: 79 79 46
Width: 600
Flags: HW
LayerCount: 2
Fore
SplineSet
160 630 m 1
 240 630 l 1
 240 550 l 1
 160 550 l 1
 160 630 l 1
260 630 m 1
 340 630 l 1
 340 550 l 1
 260 550 l 1
 260 630 l 1
360 630 m 1
 440 630 l 1
 440 550 l 1
 360 550 l 1
 360 630 l 1
60 530 m 1
 140 530 l 1
 140 450 l 1
 60 450 l 1
 60 530 l 1
460 530 m 1
 540 530 l 1
 540 450 l 1
 460 450 l 1
 460 530 l 1
60 430 m 1
 140 430 l 1
 140 350 l 1
 60 350 l 1
 60 430 l 1
460 430 m 1
 540 430 l 1
 540 350 l 1
 460 350 l 1
 460 430 l 1
60 330 m 1
 140 330 l 1
 140 250 l 1
 60 250 l 1
 60 330 l 1
460 330 m 1
 540 330 l 1
 540 250 l 1
 460 250 l 1
 460 330 l 1
60 230 m 1
 140 230 l 1
 140 150 l 1
 60 150 l 1
 60 230 l 1
460 230 m 1
 540 230 l 1
 540 150 l 1
 460 150 l 1
 460 230 l 1
60 130 m 1
 140 130 l 1
 140 50 l 1
 60 50 l 1
 60 130 l 1
460 130 m 1
 540 130 l 1
 540 50 l 1
 460 50 l 1
 460 130 l 1
160 30 m 1
 240 30 l 1
 240 -50 l 1
 160 -50 l 1
 160 30 l 1
260 30 m 1
 340 30 l 1
 340 -50 l 1
 260 -50 l 1
 260 30 l 1
360 30 m 1
 440 30 l 1
 440 -50 l 1
 360 -50 l 1
 360 30 l 1
EndSplineSet
EndChar

StartChar: P
Encoding: 80 80 47
Width: 600
Flags: HW
LayerCount: 2
Fore
SplineSet
60 630 m 1
 140 630 l 1
 140 550 l 1
 60 550 l 1
 60 630 l 1
160 630 m 1
 240 630 l 1
 240 550 l 1
 160 550 l 1
 160 630 l 1
260 630 m 1
 340 630 l 1
 340 550 l 1
 260 550 l 1
 260 630 l 1
360 630 m 1
 440 630 l 1
 440 550 l 1
 360 550 l 1
 360 630 l 1
60 530 m 1
 140 530 l 1
 140 450 l 1
 60 450 l 1
 60 530 l 1
460 530 m 1
 540 530 l 1
 540 450 l 1
 460 450 l 1
 460 530 l 1
60 430 m 1
 140 430 l 1
 140 350 l 1
 60 350 l 1
 60 430 l 1
460 430 m 1
 540 430 l 1
 540 350 l 1
 460 350 l 1
 460 430 l 1
60 330 m 1
 140 330 l 1
 140 250 l 1
 60 250 l 1
 60 330 l 1
160 330 m 1
 240 330 l 1
 240 250 l 1
 160 250 l 1
 160 330 l 1
260 330 m 1
 340 330 l 1
 340 250 l 1
 260 250 l 1
 260 330 l 1
360 330 m 1
 440 330 l 1
 440 250 l 1
 360 250 l 1
 360 330 l 1
60 230 m 1
 140 230 l 1
 140 150 l 1
 60 150 l 1
 60 230 l 1
60 130 m 1
 140 130 l 1
 140 50 l 1
 60 50 l 1
 60 130 l 1
60 30 m 1
 140 30 l 1
 140 -50 l 1
 60 -50 l 1
 60 30 l 1
EndSplineSet
EndChar

StartChar: Q
Encoding: 81 81 48
Width: 600
Flags: HW
LayerCount: 2
Fore
SplineSet
160 630 m 1
 240 630 l 1
 240 550 l 1
 160 550 l 1
 160 630 l 1
260 630 m 1
 340 630 l 1
 340 550 l 1
 260 550 l 1
 260 630 l 1
360 630 m 1
 440 630 l 1
 440 550 l 1
 360 550 l 1
 360 630 l 1
60 530 m 1
 140 530 l 1
 140 450 l 1
 60 450 l 1
 60 530 l 1
460 530 m 1
 540 530 l 1
 540 450 l 1
 460 450 l 1
 460 530 l 1
60 430 m 1
 140 430 l 1
 140 350 l 1
 60 350 l 1
 60 430 l 1
460 430 m 1
 540 430 l 1
 540 350 l 1
 460 350 l 1
 460 430 l 1
60 330 m 1
 140 330 l 1
 140 250 l 1
 60 250 l 1
 60 330 l 1
460 330 m 1
 540 330 l 1
 540 250 l 1
 460 250 l 1
 460 330 l 1
60 230 m 1
 140 230 l 1
 140 150 l 1
 60 150 l 1
 60 230 l 1
260 230 m 1
 340 230 l 1
 340 150 l 1
 260 150 l 1
 260 230 l 1
460 230 m 1
 540 230 l 1
 540 150 l 1
 460 150 l 1
 460 230 l 1
60 130 m 1
 140 130 l 1
 140 50 l 1
 60 50 l 1
 60 130 l 1
360 130 m 1
 440 130 l 1
 440 50 l 1
 360 50 l 1
 360 130 l 1
160 30 m 1
 240 30 l 1
 240 -50 l 1
 160 -50 l 1
 160 30 l 1
260 30 m 1
 340 30 l 1
 340 -50 l 1
 260 -50 l 1
 260 30 l 1
460 30 m 1
 540 30 l 1
 540 -50 l 1
 460 -50 l 1
 460 30 l 1
EndSplineSet
EndChar

StartChar: R
Encoding: 82 82 49
Width: 600
Flags: HW
LayerCount: 2
Fore
SplineSet
60 630 m 1
 140 630 l 1
 140 550 l 1
 60 550 l 1
 60 630 l 1
160 630 m 1
 240 630 l 1
 240 550 l 1
 160 550 l 1
 160 630 l 1
260 630 m 1
 340 630 l 1
 340 550 l 1
 260 550 l 1
 260 630 l 1
360 630 m 1
 440 630 l 1
 440 550 l 1
 360 550 l 1
 360 630 l 1
60 530 m 1
 140 530 l 1
 140 450 l 1
 60 450 l 1
 60 530 l 1
460 530 m 1
 540 530 l 1
 540 450 l 1
 460 450 l 1
 460 530 l 1
60 430 m 1
 140 430 l 1
 140 350 l 1
 60 350 l 1
 60 430 l 1
460 430 m 1
 540 430 l 1
 540 350 l 1
 460 350 l 1
 460 430 l 1
60 330 m 1
 140 330 l 1
 140 250 l 1
 60 250 l 1
 60 330 l 1
160 330 m 1
 240 330 l 1
 240 250 l 1
 160 250 l 1
 160 330 l 1
260 330 m 1
 340 330 l 1
 340 250 l 1
 260 250 l 1
 260 330 l 1
360 330 m 1
 440 330 l 1
 440 250 l 1
 360 250 l 1
 360 330 l 1
60 230 m 1
 140 230 l 1
 140 150 l 1
 60 150 l 1
 60 230 l 1
260 230 m 1
 340 230 l 1
 340 150 l 1
 260 150 l 1
 260 230 l 1
60 130 m 1
 140 130 l 1
 140 50 l 1
 60 50 l 1
 60 130 l 1
360 130 m 1
 440 130 l 1
 440 50 l 1
 360 50 l 1
 360 130 l 1
60 30 m 1
 140 30 l 1
 140 -50 l 1
 60 -50 l 1
 60 30 l 1
460 30 m 1
 540 30 l 1
 540 -50 l 1
 460 -50 l 1
 460 30 l 1
EndSplineSet
EndChar

StartChar: S
Encoding: 83 83 50
Width: 600
Flags: HW
LayerCount: 2
Fore
SplineSet
160 630 m 1
 240 630 l 1
 240 550 l 1
 160 550 l 1
 160 630 l 1
260 630 m 1
 340 630 l 1
 340 550 l 1
 260 550 l 1
 260 630 l 1
360 630 m 1
 440 630 l 1
 440 550 l 1
 360 550 l 1
 360 630 l 1
460 630 m 1
 540 630 l 1
 540 550 l 1
 460 550 l 1
 460 630 l 1
60 530 m 1
 140 530 l 1
 140 450 l 1
 60 450 l 1
 60 530 l 1
60 430 m 1
 140 430 l 1
 140 350 l 1
 60 350 l 1
 60 430 l 1
160 330 m 1
 240 330 l 1
 240 250 l 1
 160 250 l 1
 160 330 l 1
260 330 m 1
 340 330 l 1
 340 250 l 1
 260 250 l 1
 260 330 l 1
360 330 m 1
 440 330 l 1
 440 250 l 1
 360 250 l 1
 360 330 l 1
460 230 m 1
 540 230 l 1
 540 150 l 1
 460 150 l 1
 460 230 l 1
460 130 m 1
 540 130 l 1
 540 50 l 1
 460 50 l 1
 460 130 l 1
60 30 m 1
 140 30 l 1
 140 -50 l 1
 60 -50 l 1
 60 30 l 1
160 30 m 1
 240 30 l 1
 240 -50 l 1
 160 -50 l 1
 160 30 l 1
260 30 m 1
 340 30 l 1
 340 -50 l 1
 260 -50 l 1
 260 30 l 1
360 30 m 1
 440 30 l 1
 440 -50 l 1
 360 -50 l 1
 360 30 l 1
EndSplineSet
EndChar

StartChar: T
Encoding: 84 84 51
Width: 600
Flags: HW
LayerCount: 2
Fore
SplineSet
60 630 m 1
 140 630 l 1
 140 550 l 1
 60 550 l 1
 60 630 l 1
160 630 m 1
 240 630 l 1
 240 550 l 1
 160 550 l 1
 160 630 l 1
260 630 m 1
 340 630 l 1
 340 550 l 1
 260 550 l 1
 260 630 l 1
360 630 m 1
 440 630 l 1
 440 550 l 1
 360 550 l 1
 360 630 l 1
460 630 m 1
 540 630 l 1
 540 550 l 1
 460 550 l 1
 460 630 l 1
260 530 m 1
 340 530 l 1
 340 450 l 1
 260 450 l 1
 260 530 l 1
260 430 m 1
 340 430 l 1
 340 350 l 1
 260 350 l 1
 260 430 l 1
260 330 m 1
 340 330 l 1
 340 250 l 1
 260 250 l 1
 260 330 l 1
260 230 m 1
 340 230 l 1
 340 150 l 1
 260 150 l 1
 260 230 l 1
260 130 m 1
 340 130 l 1
 340 50 l 1
 260 50 l 1
 260 130 l 1
260 30 m 1
 340 30 l 1
 340 -50 l 1
 260 -50 l 1
 260 30 l 1
EndSplineSet
EndChar

StartChar: U
Encoding: 85 85 52
Width: 600
Flags: HW
LayerCount: 2
Fore
SplineSet
60 630 m 1
 140 630 l 1
 140 550 l 1
 60 550 l 1
 60 630 l 1
460 630 m 1
 540 630 l 1
 540 550 l 1
 460 550 l 1
 460 630 l 1
60 530 m 1
 140 530 l 1
 140 450 l 1
 60 450 l 1
 60 530 l 1
460 530 m 1
 540 530 l 1
 540 450 l 1
 460 450 l 1
 460 530 l 1
60 430 m 1
 140 430 l 1
 140 350 l 1
 60 350 l 1
 60 430 l 1
460 430 m 1
 540 430 l 1
 540 350 l 1
 460 350 l 1
 460 430 l 1
60 330 m 1
 140 330 l 1
 140 250 l 1
 60 250 l 1
 60 330 l 1
460 330 m 1
 540 330 l 1
 540 250 l 1
 460 250 l 1
 460 330 l 1
60 230 m 1
 140 230 l 1
 140 150 l 1
 60 150 l 1
 60 230 l 1
460 230 m 1
 540 230 l 1
 540 150 l 1
 460 150 l 1
 460 230 l 1
60 130 m 1
 140 130 l 1
 140 50 l 1
 60 50 l 1
 60 130 l 1
460 130 m 1
 540 130 l 1
 540 50 l 1
 460 50 l 1
 460 130 l 1
160 30 m 1
 240 30 l 1
 240 -50 l 1
 160 -50 l 1
 160 30 l 1
260 30 m 1
 340 30 l 1
 340 -50 l 1
 260 -50 l 1
 260 30 l 1
360 30 m 1
 440 30 l 1
 440 -50 l 1
 360 -50 l 1
 360 30 l 1
EndSplineSet
EndChar

StartChar: V
Encoding: 86 86 53
Width: 600
Flags: HW
LayerCount: 2
Fore
SplineSet
60 630 m 1
 140 630 l 1
 140 550 l 1
 60 550 l 1
 60 630 l 1
460 630 m 1
 540 630 l 1
 540 550 l 1
 460 550 l 1
 460 630 l 1
60 530 m 1
 140 530 l 1
 140 450 l 1
 60 450 l 1
 60 530 l 1
460 530 m 1
 540 530 l 1
 540 450 l 1
 460 450 l 1
 460 530 l 1
60 430 m 1
 140 430 l 1
 140 350 l 1
 60 350 l 1
 60 430 l 1
460 430 m 1
 540 430 l 1
 540 350 l 1
 460 350 l 1
 460 430 l 1
60 330 m 1
 140 330 l 1
 140 250 l 1
 60 250 l 1
 60 330 l 1
460 330 m 1
 540 330 l 1
 540 250 l 1
 460 250 l 1
 460 330 l 1
60 230 m 1
 140 230 l 1
 140 150 l 1
 60 150 l 1
 60 230 l 1
460 230 m 1
 540 230 l 1
 540 150 l 1
 460 150 l 1
 460 230 l 1
160 130 m 1
 240 130 l 1
 240 50 l 1
 160 50 l 1
 160 130 l 1
360 130 m 1
 440 130 l 1
 440 50 l 1
 360 50 l 1
 360 130 l 1
260 30 m 1
 340 30 l 1
 340 -50 l 1
 260 -50 l 1
 260 30 l 1
EndSplineSet
EndChar

StartChar: W
Encoding: 87 87 54
Width: 600
Flags: HW
LayerCount: 2
Fore
SplineSet
60 630 m 1
 140 630 l 1
 140 550 l 1
 60 550 l 1
 60 630 l 1
460 630 m 1
 540 630 l 1
 540 550 l 1
 460 550 l 1
 460 630 l 1
60 530 m 1
 140 530 l 1
 140 450 l 1
 60 450 l 1
 60 530 l 1
460 530 m 1
 540 530 l 1
 540 450 l 1
 460 450 l 1
 460 530 l 1
60 430 m 1
 140 430 l 1
 140 350 l 1
 60 350 l 1
 60 430 l 1
460 430 m 1
 540 430 l 1
 540 350 l 1
 460 350 l 1
 460 430 l 1
60 330 m 1
 140 330 l 1
 140 250 l 1
 60 250 l 1
 60 330 l 1
260 330 m 1
 340 330 l 1
 340 250 l 1
 260 250 l 1
 260 330 l 1
460 330 m 1
 540 330 l 1
 540 250 l 1
 460 250 l 1
 460 330 l 1
60 230 m 1
 140 230 l 1
 140 150 l 1
 60 150 l 1
 60 230 l 1
260 230 m 1
 340 230 l 1
 340 150 l 1
 260 150 l 1
 260 230 l 1
460 230 m 1
 540 230 l 1
 540 150 l 1
 460 150 l 1
 460 230 l 1
60 130 m 1
 140 130 l 1
 140 50 l 1
 60 50 l 1
 60 130 l 1
260 130 m 1
 340 130 l 1
 340 50 l 1
 260 50 l 1
 260 130 l 1
460 130 m 1
 540 130 l 1
 540 50 l 1
 460 50 l 1
 460 130 l 1
160 30 m 1
 240 30 l 1
 240 -50 l 1
 160 -50 l 1
 160 30 l 1
360 30 m 1
 440 30 l 1
 440 -50 l 1
 360 -50 l 1
 360 30 l 1
EndSplineSet
EndChar

StartChar: X
Encoding: 88 88 55
Width: 600
Flags: HW
LayerCount: 2
Fore
SplineSet
60 630 m 1
 140 630 l 1
 140 550 l 1
 60 550 l 1
 60 630 l 1
460 630 m 1
 540 630 l 1
 540 550 l 1
 460 550 l 1
 460 630 l 1
60 530 m 1
 140 530 l 1
 140 450 l 1
 60 450 l 1
 60 530 l 1
460 530 m 1
 540 530 l 1
 540 450 l 1
 460 450 l 1
 460 530 l 1
160 430 m 1
 240 430 l 1
 240 350 l 1
 160 350 l 1
 160 430 l 1
360 430 m 1
 440 430 l 1
 440 350 l 1
 360 350 l 1
 360 430 l 1
260 330 m 1
 340 330 l 1
 340 250 l 1
 260 250 l 1
 260 330 l 1
160 230 m 1
 240 230 l 1
 240 150 l 1
 160 150 l 1
 160 230 l 1
360 230 m 1
 440 230 l 1
 440 150 l 1
 360 150 l 1
 360 230 l 1
60 130 m 1
 140 130 l 1
 140 50 l 1
 60 50 l 1
 60 130 l 1
460 130 m 1
 540 130 l 1
 540 50 l 1
 460 50 l 1
 460 130 l 1
60 30 m 1
 140 30 l 1
 140 -50 l 1
 60 -50 l 1
 60 30 l 1
460 30 m 1
 540 30 l 1
 540 -50 l 1
 460 -50 l 1
 460 30 l 1
EndSplineSet
EndChar

StartChar: Y
Encoding: 89 89 56
Width: 600
Flags: HW
LayerCount: 2
Fore
SplineSet
60 630 m 1
 140 630 l 1
 140 550 l 1
 60 550 l 1
 60 630 l 1
460 630 m 1
 540 630 l 1
 540 550 l 1
 460 550 l 1
 460 630 l 1
60 530 m 1
 140 530 l 1
 140 450 l 1
 60 450 l 1
 60 530 l 1
460 530 m 1
 540 530 l 1
 540 450 l 1
 460 450 l 1
 460 530 l 1
60 430 m 1
 140 430 l 1
 140 350 l 1
 60 350 l 1
 60 430 l 1
460 430 m 1
 540 430 l 1
 540 350 l 1
 460 350 l 1
 460 430 l 1
160 330 m 1
 240 330 l 1
 240 250 l 1
 160 250 l 1
 160 330 l 1
360 330 m 1
 440 330 l 1
 440 250 l 1
 360 250 l 1
 360 330 l 1
260 230 m 1
 340 230 l 1
 340 150 l 1
 260 150 l 1
 260 230 l 1
260 130 m 1
 340 130 l 1
 340 50 l 1
 260 50 l 1
 260 130 l 1
260 30 m 1
 340 30 l 1
 340 -50 l 1
 260 -50 l 1
 260 30 l 1
EndSplineSet
EndChar

StartChar: Z
Encoding: 90 90 57
Width: 600
Flags: HW
LayerCount: 2
Fore
SplineSet
60 630 m 1
 140 630 l 1
 140 550 l 1
 60 550 l 1
 60 630 l 1
160 630 m 1
 240 630 l 1
 240 550 l 1
 160 550 l 1
 160 630 l 1
260 630 m 1
 340 630 l 1
 340 550 l 1
 260 550 l 1
 260 630 l 1
360 630 m 1
 440 630 l 1
 440 550 l 1
 360 550 l 1
 360 630 l 1
460 630 m 1
 540 630 l 1
 540 550 l 1
 460 550 l 1
 460 630 l 1
460 530 m 1
 540 530 l 1
 540 450 l 1
 460 450 l 1
 460 530 l 1
360 430 m 1
 440 430 l 1
 440 350 l 1
 360 350 l 1
 360 430 l 1
260 330 m 1
 340 330 l 1
 340 250 l 1
 260 250 l 1
 260 330 l 1
160 230 m 1
 240 230 l 1
 240 150 l 1
 160 150 l 1
 160 230 l 1
60 130 m 1
 140 130 l 1
 140 50 l 1
 60 50 l 1
 60 130 l 1
60 30 m 1
 140 30 l 1
 140 -50 l 1
 60 -50 l 1
 60 30 l 1
160 30 m 1
 240 30 l 1
 240 -50 l 1
 160 -50 l 1
 160 30 l 1
260 30 m 1
 340 30 l 1
 340 -50 l 1
 260 -50 l 1
 260 30 l 1
360 30 m 1
 440 30 l 1
 440 -50 l 1
 360 -50 l 1
 360 30 l 1
460 30 m 1
 540 30 l 1
 540 -50 l 1
 460 -50 l 1
 460 30 l 1
EndSplineSet
EndChar

StartChar: bracketleft
Encoding: 91 91 58
Width: 600
Flags: HW
LayerCount: 2
Fore
SplineSet
160 630 m 1
 240 630 l 1
 240 550 l 1
 160 550 l 1
 160 630 l 1
260 630 m 1
 340 630 l 1
 340 550 l 1
 260 550 l 1
 260 630 l 1
360 630 m 1
 440 630 l 1
 440 550 l 1
 360 550 l 1
 360 630 l 1
160 530 m 1
 240 530 l 1
 240 450 l 1
 160 450 l 1
 160 530 l 1
160 430 m 1
 240 430 l 1
 240 350 l 1
 160 350 l 1
 160 430 l 1
160 330 m 1
 240 330 l 1
 240 250 l 1
 160 250 l 1
 160 330 l 1
160 230 m 1
 240 230 l 1
 240 150 l 1
 160 150 l 1
 160 230 l 1
160 130 m 1
 240 130 l 1
 240 50 l 1
 160 50 l 1
 160 130 l 1
160 30 m 1
 240 30 l 1
 240 -50 l 1
 160 -50 l 1
 160 30 l 1
260 30 m 1
 340 30 l 1
 340 -50 l 1
 260 -50 l 1
 260 30 l 1
360 30 m 1
 440 30 l 1
 440 -50 l 1
 360 -50 l 1
 360 30 l 1
EndSplineSet
EndChar

StartChar: backslash
Encoding: 92 92 59
Width: 600
Flags: HW
LayerCount: 2
Fore
SplineSet
60 530 m 1
 140 530 l 1
 140 450 l 1
 60 450 l 1
 60 530 l 1
160 430 m 1
 240 430 l 1
 240 350 l 1
 160 350 l 1
 160 430 l 1
260 330 m 1
 340 330 l 1
 340 250 l 1
 260 250 l 1
 260 330 l 1
360 230 m 1
 440 230 l 1
 440 150 l 1
 360 150 l 1
 360 230 l 1
460 130 m 1
 540 130 l 1
 540 50 l 1
 460 50 l 1
 460 130 l 1
EndSplineSet
EndChar

StartChar: bracketright
Encoding: 93 93 60
Width: 600
Flags: HW
LayerCount: 2
Fore
SplineSet
160 630 m 1
 240 630 l 1
 240 550 l 1
 160 550 l 1
 160 630 l 1
260 630 m 1
 340 630 l 1
 340 550 l 1
 260 550 l 1
 260 630 l 1
360 630 m 1
 440 630 l 1
 440 550 l 1
 360 550 l 1
 360 630 l 1
360 530 m 1
 440 530 l 1
 440 450 l 1
 360 450 l 1
 360 530 l 1
360 430 m 1
 440 430 l 1
 440 350 l 1
 360 350 l 1
 360 430 l 1
360 330 m 1
 440 330 l 1
 440 250 l 1
 360 250 l 1
 360 330 l 1
360 230 m 1
 440 230 l 1
 440 150 l 1
 360 150 l 1
 360 230 l 1
360 130 m 1
 440 130 l 1
 440 50 l 1
 360 50 l 1
 360 130 l 1
160 30 m 1
 240 30 l 1
 240 -50 l 1
 160 -50 l 1
 160 30 l 1
260 30 m 1
 340 30 l 1
 340 -50 l 1
 260 -50 l 1
 260 30 l 1
360 30 m 1
 440 30 l 1
 440 -50 l 1
 360 -50 l 1
 360 30 l 1
EndSplineSet
EndChar

StartChar: asciicircum
Encoding: 94 94 61
Width: 600
Flags: HW
LayerCount: 2
Fore
SplineSet
260 630 m 1
 340 630 l 1
 340 550 l 1
 260 550 l 1
 260 630 l 1
160 530 m 1
 240 530 l 1
 240 450 l 1
 160 450 l 1
 160 530 l 1
360 530 m 1
 440 530 l 1
 440 450 l 1
 360 450 l 1
 360 530 l 1
60 430 m 1
 140 430 l 1
 140 350 l 1
 60 350 l 1
 60 430 l 1
460 430 m 1
 540 430 l 1
 540 350 l 1
 460 350 l 1
 460 430 l 1
EndSplineSet
EndChar

StartChar: underscore
Encoding: 95 95 62
Width: 600
Flags: HW
LayerCount: 2
Fore
SplineSet
60 30 m 1
 140 30 l 1
 140 -50 l 1
 60 -50 l 1
 60 30 l 1
160 30 m 1
 240 30 l 1
 240 -50 l 1
 160 -50 l 1
 160 30 l 1
260 30 m 1
 340 30 l 1
 340 -50 l 1
 260 -50 l 1
 260 30 l 1
360 30 m 1
 440 30 l 1
 440 -50 l 1
 360 -50 l 1
 360 30 l 1
460 30 m 1
 540 30 l 1
 540 -50 l 1
 460 -50 l 1
 460 30 l 1
EndSplineSet
EndChar

StartChar: grave
Encoding: 96 96 63
Width: 600
Flags: HW
LayerCount: 2
Fore
SplineSet
160 630 m 1
 240 630 l 1
 240 550 l 1
 160 550 l 1
 160 630 l 1
260 530 m 1
 340 530 l 1
 340 450 l 1
 260 450 l 1
 260 530 l 1
360 430 m 1
 440 430 l 1
 440 350 l 1
 360 350 l 1
 360 430 l 1
EndSplineSet
EndChar

StartChar: a
Encoding: 97 97 64
Width: 600
Flags: HW
LayerCount: 2
Fore
SplineSet
160 430 m 1
 240 430 l 1
 240 350 l 1
 160 350 l 1
 160 430 l 1
260 430 m 1
 340 430 l 1
 340 350 l 1
 260 350 l 1
 260 430 l 1
360 430 m 1
 440 430 l 1
 440 350 l 1
 360 350 l 1
 360 430 l 1
460 330 m 1
 540 330 l 1
 540 250 l 1
 460 250 l 1
 460 330 l 1
160 230 m 1
 240 230 l 1
 240 150 l 1
 160 150 l 1
 160 230 l 1
260 230 m 1
 340 230 l 1
 340 150 l 1
 260 150 l 1
 260 230 l 1
360 230 m 1
 440 230 l 1
 440 150 l 1
 360 150 l 1
 360 230 l 1
460 230 m 1
 540 230 l 1
 540 150 l 1
 460 150 l 1
 460 230 l 1
60 130 m 1
 140 130 l 1
 140 50 l 1
 60 50 l 1
 60 130 l 1
460 130 m 1
 540 130 l 1
 540 50 l 1
 460 50 l 1
 460 130 l 1
160 30 m 1
 240 30 l 1
 240 -50 l 1
 160 -50 l 1
 160 30 l 1
260 30 m 1
 340 30 l 1
 340 -50 l 1
 260 -50 l 1
 260 30 l 1
360 30 m 1
 440 30 l 1
 440 -50 l 1
 360 -50 l 1
 360 30 l 1
460 30 m 1
 540 30 l 1
 540 -50 l 1
 460 -50 l 1
 460 30 l 1
EndSplineSet
EndChar

StartChar: b
Encoding: 98 98 65
Width: 600
Flags: HW
LayerCount: 2
Fore
SplineSet
60 630 m 1
 140 630 l 1
 140 550 l 1
 60 550 l 1
 60 630 l 1
60 530 m 1
 140 530 l 1
 140 450 l 1
 60 450 l 1
 60 530 l 1
60 430 m 1
 140 430 l 1
 140 350 l 1
 60 350 l 1
 60 430 l 1
260 430 m 1
 340 430 l 1
 340 350 l 1
 260 350 l 1
 260 430 l 1
360 430 m 1
 440 430 l 1
 440 350 l 1
 360 350 l 1
 360 430 l 1
60 330 m 1
 140 330 l 1
 140 250 l 1
 60 250 l 1
 60 330 l 1
160 330 m 1
 240 330 l 1
 240 250 l 1
 160 250 l 1
 160 330 l 1
460 330 m 1
 540 330 l 1
 540 250 l 1
 460 250 l 1
 460 330 l 1
60 230 m 1
 140 230 l 1
 140 150 l 1
 60 150 l 1
 60 230 l 1
460 230 m 1
 540 230 l 1
 540 150 l 1
 460 150 l 1
 460 230 l 1
60 130 m 1
 140 130 l 1
 140 50 l 1
 60 50 l 1
 60 130 l 1
460 130 m 1
 540 130 l 1
 540 50 l 1
 460 50 l 1
 460 130 l 1
60 30 m 1
 140 30 l 1
 140 -50 l 1
 60 -50 l 1
 60 30 l 1
160 30 m 1
 240 30 l 1
 240 -50 l 1
 160 -50 l 1
 160 30 l 1
260 30 m 1
 340 30 l 1
 340 -50 l 1
 260 -50 l 1
 260 30 l 1
360 30 m 1
 440 30 l 1
 440 -50 l 1
 360 -50 l 1
 360 30 l 1
EndSplineSet
EndChar

StartChar: c
Encoding: 99 99 66
Width: 600
Flags: HW
LayerCount: 2
Fore
SplineSet
160 430 m 1
 240 430 l 1
 240 350 l 1
 160 350 l 1
 160 430 l 1
260 430 m 1
 340 430 l 1
 340 350 l 1
 260 350 l 1
 260 430 l 1
360 430 m 1
 440 430 l 1
 440 350 l 1
 360 350 l 1
 360 430 l 1
60 330 m 1
 140 330 l 1
 140 250 l 1
 60 250 l 1
 60 330 l 1
60 230 m 1
 140 230 l 1
 140 150 l 1
 60 150 l 1
 60 230 l 1
60 130 m 1
 140 130 l 1
 140 50 l 1
 60 50 l 1
 60 130 l 1
460 130 m 1
 540 130 l 1
 540 50 l 1
 460 50 l 1
 460 130 l 1
160 30 m 1
 240 30 l 1
 240 -50 l 1
 160 -50 l 1
 160 30 l 1
260 30 m 1
 340 30 l 1
 340 -50 l 1
 260 -50 l 1
 260 30 l 1
360 30 m 1
 440 30 l 1
 440 -50 l 1
 360 -50 l 1
 360 30 l 1
EndSplineSet
EndChar

StartChar: d
Encoding: 100 100 67
Width: 600
Flags: HW
LayerCount: 2
Fore
SplineSet
460 630 m 1
 540 630 l 1
 540 550 l 1
 460 550 l 1
 460 630 l 1
460 530 m 1
 540 530 l 1
 540 450 l 1
 460 450 l 1
 460 530 l 1
160 430 m 1
 240 430 l 1
 240 350 l 1
 160 350 l 1
 160 430 l 1
260 430 m 1
 340 430 l 1
 340 350 l 1
 260 350 l 1
 260 430 l 1
460 430 m 1
 540 430 l 1
 540 350 l 1
 460 350 l 1
 460 430 l 1
60 330 m 1
 140 330 l 1
 140 250 l 1
 60 250 l 1
 60 330 l 1
360 330 m 1
 440 330 l 1
 440 250 l 1
 360 250 l 1
 360 330 l 1
460 330 m 1
 540 330 l 1
 540 250 l 1
 460 250 l 1
 460 330 l 1
60 230 m 1
 140 230 l 1
 140 150 l 1
 60 150 l 1
 60 230 l 1
460 230 m 1
 540 230 l 1
 540 150 l 1
 460 150 l 1
 460 230 l 1
60 130 m 1
 140 130 l 1
 140 50 l 1
 60 50 l 1
 60 130 l 1
460 130 m 1
 540 130 l 1
 540 50 l 1
 460 50 l 1
 460 130 l 1
160 30 m 1
 240 30 l 1
 240 -50 l 1
 160 -50 l 1
 160 30 l 1
260 30 m 1
 340 30 l 1
 340 -50 l 1
 260 -50 l 1
 260 30 l 1
360 30 m 1
 440 30 l 1
 440 -50 l 1
 360 -50 l 1
 360 30 l 1
460 30 m 1
 540 30 l 1
 540 -50 l 1
 460 -50 l 1
 460 30 l 1
EndSplineSet
EndChar

StartChar: e
Encoding: 101 101 68
Width: 600
Flags: HW
LayerCount: 2
Fore
SplineSet
160 430 m 1
 240 430 l 1
 240 350 l 1
 160 350 l 1
 160 430 l 1
260 430 m 1
 340 430 l 1
 340 350 l 1
 260 350 l 1
 260 430 l 1
360 430 m 1
 440 430 l 1
 440 350 l 1
 360 350 l 1
 360 430 l 1
60 330 m 1
 140 330 l 1
 140 250 l 1
 60 250 l 1
 60 330 l 1
460 330 m 1
 540 330 l 1
 540 250 l 1
 460 250 l 1
 460 330 l 1
60 230 m 1
 140 230 l 1
 140 150 l 1
 60 150 l 1
 60 230 l 1
160 230 m 1
 240 230 l 1
 240 150 l 1
 160 150 l 1
 160 230 l 1
260 230 m 1
 340 230 l 1
 340 150 l 1
 260 150 l 1
 260 230 l 1
360 230 m 1
 440 230 l 1
 440 150 l 1
 360 150 l 1
 360 230 l 1
460 230 m 1
 540 230 l 1
 540 150 l 1
 460 150 l 1
 460 230 l 1
60 130 m 1
 140 130 l 1
 140 50 l 1
 60 50 l 1
 60 130 l 1
160 30 m 1
 240 30 l 1
 240 -50 l 1
 160 -50 l 1
 160 30 l 1
260 30 m 1
 340 30 l 1
 340 -50 l 1
 260 -50 l 1
 260 30 l 1
360 30 m 1
 440 30 l 1
 440 -50 l 1
 360 -50 l 1
 360 30 l 1
EndSplineSet
EndChar

StartChar: f
Encoding: 102 102 69
Width: 600
Flags: HW
LayerCount: 2
Fore
SplineSet
260 630 m 1
 340 630 l 1
 340 550 l 1
 260 550 l 1
 260 630 l 1
360 630 m 1
 440 630 l 1
 440 550 l 1
 360 550 l 1
 360 630 l 1
160 530 m 1
 240 530 l 1
 240 450 l 1
 160 450 l 1
 160 530 l 1
460 530 m 1
 540 530 l 1
 540 450 l 1
 460 450 l 1
 460 530 l 1
160 430 m 1
 240 430 l 1
 240 350 l 1
 160 350 l 1
 160 430 l 1
60 330 m 1
 140 330 l 1
 140 250 l 1
 60 250 l 1
 60 330 l 1
160 330 m 1
 240 330 l 1
 240 250 l 1
 160 250 l 1
 160 330 l 1
260 330 m 1
 340 330 l 1
 340 250 l 1
 260 250 l 1
 260 330 l 1
160 230 m 1
 240 230 l 1
 240 150 l 1
 160 150 l 1
 160 230 l 1
160 130 m 1
 240 130 l 1
 240 50 l 1
 160 50 l 1
 160 130 l 1
160 30 m 1
 240 30 l 1
 240 -50 l 1
 160 -50 l 1
 160 30 l 1
EndSplineSet
EndChar

StartChar: g
Encoding: 103 103 70
Width: 600
Flags: HW
LayerCount: 2
Fore
SplineSet
160 530 m 1
 240 530 l 1
 240 450 l 1
 160 450 l 1
 160 530 l 1
260 530 m 1
 340 530 l 1
 340 450 l 1
 260 450 l 1
 260 530 l 1
360 530 m 1
 440 530 l 1
 440 450 l 1
 360 450 l 1
 360 530 l 1
460 530 m 1
 540 530 l 1
 540 450 l 1
 460 450 l 1
 460 530 l 1
60 430 m 1
 140 430 l 1
 140 350 l 1
 60 350 l 1
 60 430 l 1
460 430 m 1
 540 430 l 1
 540 350 l 1
 460 350 l 1
 460 430 l 1
60 330 m 1
 140 330 l 1
 140 250 l 1
 60 250 l 1
 60 330 l 1
460 330 m 1
 540 330 l 1
 540 250 l 1
 460 250 l 1
 460 330 l 1
160 230 m 1
 240 230 l 1
 240 150 l 1
 160 150 l 1
 160 230 l 1
260 230 m 1
 340 230 l 1
 340 150 l 1
 260 150 l 1
 260 230 l 1
360 230 m 1
 440 230 l 1
 440 150 l 1
 360 150 l 1
 360 230 l 1
460 230 m 1
 540 230 l 1
 540 150 l 1
 460 150 l 1
 460 230 l 1
460 130 m 1
 540 130 l 1
 540 50 l 1
 460 50 l 1
 460 130 l 1
160 30 m 1
 240 30 l 1
 240 -50 l 1
 160 -50 l 1
 160 30 l 1
260 30 m 1
 340 30 l 1
 340 -50 l 1
 260 -50 l 1
 260 30 l 1
360 30 m 1
 440 30 l 1
 440 -50 l 1
 360 -50 l 1
 360 30 l 1
EndSplineSet
EndChar

StartChar: h
Encoding: 104 104 71
Width: 600
Flags: HW
LayerCount: 2
Fore
SplineSet
60 630 m 1
 140 630 l 1
 140 550 l 1
 60 550 l 1
 60 630 l 1
60 530 m 1
 140 530 l 1
 140 450 l 1
 60 450 l 1
 60 530 l 1
60 430 m 1
 140 430 l 1
 140 350 l 1
 60 350 l 1
 60 430 l 1
260 430 m 1
 340 430 l 1
 340 350 l 1
 260 350 l 1
 260 430 l 1
360 430 m 1
 440 430 l 1
 440 350 l 1
 360 350 l 1
 360 430 l 1
60 330 m 1
 140 330 l 1
 140 250 l 1
 60 250 l 1
 60 330 l 1
160 330 m 1
 240 330 l 1
 240 250 l 1
 160 250 l 1
 160 330 l 1
460 330 m 1
 540 330 l 1
 540 250 l 1
 460 250 l 1
 460 330 l 1
60 230 m 1
 140 230 l 1
 140 150 l 1
 60 150 l 1
 60 230 l 1
460 230 m 1
 540 230 l 1
 540 150 l 1
 460 150 l 1
 460 230 l 1
60 130 m 1
 140 130 l 1
 140 50 l 1
 60 50 l 1
 60 130 l 1
460 130 m 1
 540 130 l 1
 540 50 l 1
 460 50 l 1
 460 130 l 1
60 30 m 1
 140 30 l 1
 140 -50 l 1
 60 -50 l 1
 60 30 l 1
460 30 m 1
 540 30 l 1
 540 -50 l 1
 460 -50 l 1
 460 30 l 1
EndSplineSet
EndChar

StartChar: i
Encoding: 105 105 72
Width: 600
Flags: HW
LayerCount: 2
Fore
SplineSet
260 630 m 1
 340 630 l 1
 340 550 l 1
 260 550 l 1
 260 630 l 1
260 430 m 1
 340 430 l 1
 340 350 l 1
 260 350 l 1
 260 430 l 1
160 330 m 1
 240 330 l 1
 240 250 l 1
 160 250 l 1
 160 330 l 1
260 330 m 1
 340 330 l 1
 340 250 l 1
 260 250 l 1
 260 330 l 1
260 230 m 1
 340 230 l 1
 340 150 l 1
 260 150 l 1
 260 230 l 1
260 130 m 1
 340 130 l 1
 340 50 l 1
 260 50 l 1
 260 130 l 1
160 30 m 1
 240 30 l 1
 240 -50 l 1
 160 -50 l 1
 160 30 l 1
260 30 m 1
 340 30 l 1
 340 -50 l 1
 260 -50 l 1
 260 30 l 1
360 30 m 1
 440 30 l 1
 440 -50 l 1
 360 -50 l 1
 360 30 l 1
EndSplineSet
EndChar

StartChar: j
Encoding: 106 106 73
Width: 600
Flags: HW
LayerCount: 2
Fore
SplineSet
410 630 m 1
 490 630 l 1
 490 550 l 1
 410 550 l 1
 410 630 l 1
310 430 m 1
 390 430 l 1
 390 350 l 1
 310 350 l 1
 310 430 l 1
410 430 m 1
 490 430 l 1
 490 350 l 1
 410 350 l 1
 410 430 l 1
410 330 m 1
 490 330 l 1
 490 250 l 1
 410 250 l 1
 410 330 l 1
410 230 m 1
 490 230 l 1
 490 150 l 1
 410 150 l 1
 410 230 l 1
110 130 m 1
 190 130 l 1
 190 50 l 1
 110 50 l 1
 110 130 l 1
410 130 m 1
 490 130 l 1
 490 50 l 1
 410 50 l 1
 410 130 l 1
210 30 m 1
 290 30 l 1
 290 -50 l 1
 210 -50 l 1
 210 30 l 1
310 30 m 1
 390 30 l 1
 390 -50 l 1
 310 -50 l 1
 310 30 l 1
EndSplineSet
EndChar

StartChar: k
Encoding: 107 107 74
Width: 600
Flags: HW
LayerCount: 2
Fore
SplineSet
110 630 m 1
 190 630 l 1
 190 550 l 1
 110 550 l 1
 110 630 l 1
110 530 m 1
 190 530 l 1
 190 450 l 1
 110 450 l 1
 110 530 l 1
110 430 m 1
 190 430 l 1
 190 350 l 1
 110 350 l 1
 110 430 l 1
410 430 m 1
 490 430 l 1
 490 350 l 1
 410 350 l 1
 410 430 l 1
110 330 m 1
 190 330 l 1
 190 250 l 1
 110 250 l 1
 110 330 l 1
310 330 m 1
 390 330 l 1
 390 250 l 1
 310 250 l 1
 310 330 l 1
110 230 m 1
 190 230 l 1
 190 150 l 1
 110 150 l 1
 110 230 l 1
210 230 m 1
 290 230 l 1
 290 150 l 1
 210 150 l 1
 210 230 l 1
110 130 m 1
 190 130 l 1
 190 50 l 1
 110 50 l 1
 110 130 l 1
310 130 m 1
 390 130 l 1
 390 50 l 1
 310 50 l 1
 310 130 l 1
110 30 m 1
 190 30 l 1
 190 -50 l 1
 110 -50 l 1
 110 30 l 1
410 30 m 1
 490 30 l 1
 490 -50 l 1
 410 -50 l 1
 410 30 l 1
EndSplineSet
EndChar

StartChar: l
Encoding: 108 108 75
Width: 600
Flags: HW
LayerCount: 2
Fore
SplineSet
160 630 m 1
 240 630 l 1
 240 550 l 1
 160 550 l 1
 160 630 l 1
260 630 m 1
 340 630 l 1
 340 550 l 1
 260 550 l 1
 260 630 l 1
260 530 m 1
 340 530 l 1
 340 450 l 1
 260 450 l 1
 260 530 l 1
260 430 m 1
 340 430 l 1
 340 350 l 1
 260 350 l 1
 260 430 l 1
260 330 m 1
 340 330 l 1
 340 250 l 1
 260 250 l 1
 260 330 l 1
260 230 m 1
 340 230 l 1
 340 150 l 1
 260 150 l 1
 260 230 l 1
260 130 m 1
 340 130 l 1
 340 50 l 1
 260 50 l 1
 260 130 l 1
160 30 m 1
 240 30 l 1
 240 -50 l 1
 160 -50 l 1
 160 30 l 1
260 30 m 1
 340 30 l 1
 340 -50 l 1
 260 -50 l 1
 260 30 l 1
360 30 m 1
 440 30 l 1
 440 -50 l 1
 360 -50 l 1
 360 30 l 1
EndSplineSet
EndChar

StartChar: m
Encoding: 109 109 76
Width: 600
Flags: HW
LayerCount: 2
Fore
SplineSet
60 430 m 1
 140 430 l 1
 140 350 l 1
 60 350 l 1
 60 430 l 1
160 430 m 1
 240 430 l 1
 240 350 l 1
 160 350 l 1
 160 430 l 1
360 430 m 1
 440 430 l 1
 440 350 l 1
 360 350 l 1
 360 430 l 1
60 330 m 1
 140 330 l 1
 140 250 l 1
 60 250 l 1
 60 330 l 1
260 330 m 1
 340 330 l 1
 340 250 l 1
 260 250 l 1
 260 330 l 1
460 330 m 1
 540 330 l 1
 540 250 l 1
 460 250 l 1
 460 330 l 1
60 230 m 1
 140 230 l 1
 140 150 l 1
 60 150 l 1
 60 230 l 1
260 230 m 1
 340 230 l 1
 340 150 l 1
 260 150 l 1
 260 230 l 1
460 230 m 1
 540 230 l 1
 540 150 l 1
 460 150 l 1
 460 230 l 1
60 130 m 1
 140 130 l 1
 140 50 l 1
 60 50 l 1
 60 130 l 1
460 130 m 1
 540 130 l 1
 540 50 l 1
 460 50 l 1
 460 130 l 1
60 30 m 1
 140 30 l 1
 140 -50 l 1
 60 -50 l 1
 60 30 l 1
460 30 m 1
 540 30 l 1
 540 -50 l 1
 460 -50 l 1
 460 30 l 1
EndSplineSet
EndChar

StartChar: n
Encoding: 110 110 77
Width: 600
Flags: HW
LayerCount: 2
Fore
SplineSet
60 430 m 1
 140 430 l 1
 140 350 l 1
 60 350 l 1
 60 430 l 1
260 430 m 1
 340 430 l 1
 340 350 l 1
 260 350 l 1
 260 430 l 1
360 430 m 1
 440 430 l 1
 440 350 l 1
 360 350 l 1
 360 430 l 1
60 330 m 1
 140 330 l 1
 140 250 l 1
 60 250 l 1
 60 330 l 1
160 330 m 1
 240 330 l 1
 240 250 l 1
 160 250 l 1
 160 330 l 1
460 330 m 1
 540 330 l 1
 540 250 l 1
 460 250 l 1
 460 330 l 1
60 230 m 1
 140 230 l 1
 140 150 l 1
 60 150 l 1
 60 230 l 1
460 230 m 1
 540 230 l 1
 540 150 l 1
 460 150 l 1
 460 230 l 1
60 130 m 1
 140 130 l 1
 140 50 l 1
 60 50 l 1
 60 130 l 1
460 130 m 1
 540 130 l 1
 540 50 l 1
 460 50 l 1
 460 130 l 1
60 30 m 1
 140 30 l 1
 140 -50 l 1
 60 -50 l 1
 60 30 l 1
460 30 m 1
 540 30 l 1
 540 -50 l 1
 460 -50 l 1
 460 30 l 1
EndSplineSet
EndChar

StartChar: o
Encoding: 111 111 78
Width: 600
Flags: HW
LayerCount: 2
Fore
SplineSet
160 430 m 1
 240 430 l 1
 240 350 l 1
 160 350 l 1
 160 430 l 1
260 430 m 1
 340 430 l 1
 340 350 l 1
 260 350 l 1
 260 430 l 1
360 430 m 1
 440 430 l 1
 440 350 l 1
 360 350 l 1
 360 430 l 1
60 330 m 1
 140 330 l 1
 140 250 l 1
 60 250 l 1
 60 330 l 1
460 330 m 1
 540 330 l 1
 540 250 l 1
 460 250 l 1
 460 330 l 1
60 230 m 1
 140 230 l 1
 140 150 l 1
 60 150 l 1
 60 230 l 1
460 230 m 1
 540 230 l 1
 540 150 l 1
 460 150 l 1
 460 230 l 1
60 130 m 1
 140 130 l 1
 140 50 l 1
 60 50 l 1
 60 130 l 1
460 130 m 1
 540 130 l 1
 540 50 l 1
 460 50 l 1
 460 130 l 1
160 30 m 1
 240 30 l 1
 240 -50 l 1
 160 -50 l 1
 160 30 l 1
260 30 m 1
 340 30 l 1
 340 -50 l 1
 260 -50 l 1
 260 30 l 1
360 30 m 1
 440 30 l 1
 440 -50 l 1
 360 -50 l 1
 360 30 l 1
EndSplineSet
EndChar

StartChar: p
Encoding: 112 112 79
Width: 600
Flags: HW
LayerCount: 2
Fore
SplineSet
60 430 m 1
 140 430 l 1
 140 350 l 1
 60 350 l 1
 60 430 l 1
160 430 m 1
 240 430 l 1
 240 350 l 1
 160 350 l 1
 160 430 l 1
260 430 m 1
 340 430 l 1
 340 350 l 1
 260 350 l 1
 260 430 l 1
360 430 m 1
 440 430 l 1
 440 350 l 1
 360 350 l 1
 360 430 l 1
60 330 m 1
 140 330 l 1
 140 250 l 1
 60 250 l 1
 60 330 l 1
460 330 m 1
 540 330 l 1
 540 250 l 1
 460 250 l 1
 460 330 l 1
60 230 m 1
 140 230 l 1
 140 150 l 1
 60 150 l 1
 60 230 l 1
160 230 m 1
 240 230 l 1
 240 150 l 1
 160 150 l 1
 160 230 l 1
260 230 m 1
 340 230 l 1
 340 150 l 1
 260 150 l 1
 260 230 l 1
360 230 m 1
 440 230 l 1
 440 150 l 1
 360 150 l 1
 360 230 l 1
60 130 m 1
 140 130 l 1
 140 50 l 1
 60 50 l 1
 60 130 l 1
60 30 m 1
 140 30 l 1
 140 -50 l 1
 60 -50 l 1
 60 30 l 1
EndSplineSet
EndChar

StartChar: q
Encoding: 113 113 80
Width: 600
Flags: HW
LayerCount: 2
Fore
SplineSet
160 430 m 1
 240 430 l 1
 240 350 l 1
 160 350 l 1
 160 430 l 1
260 430 m 1
 340 430 l 1
 340 350 l 1
 260 350 l 1
 260 430 l 1
460 430 m 1
 540 430 l 1
 540 350 l 1
 460 350 l 1
 460 430 l 1
60 330 m 1
 140 330 l 1
 140 250 l 1
 60 250 l 1
 60 330 l 1
360 330 m 1
 440 330 l 1
 440 250 l 1
 360 250 l 1
 360 330 l 1
460 330 m 1
 540 330 l 1
 540 250 l 1
 460 250 l 1
 460 330 l 1
160 230 m 1
 240 230 l 1
 240 150 l 1
 160 150 l 1
 160 230 l 1
260 230 m 1
 340 230 l 1
 340 150 l 1
 260 150 l 1
 260 230 l 1
360 230 m 1
 440 230 l 1
 440 150 l 1
 360 150 l 1
 360 230 l 1
460 230 m 1
 540 230 l 1
 540 150 l 1
 460 150 l 1
 460 230 l 1
460 130 m 1
 540 130 l 1
 540 50 l 1
 460 50 l 1
 460 130 l 1
460 30 m 1
 540 30 l 1
 540 -50 l 1
 460 -50 l 1
 460 30 l 1
EndSplineSet
EndChar

StartChar: r
Encoding: 114 114 81
Width: 600
Flags: HW
LayerCount: 2
Fore
SplineSet
60 430 m 1
 140 430 l 1
 140 350 l 1
 60 350 l 1
 60 430 l 1
260 430 m 1
 340 430 l 1
 340 350 l 1
 260 350 l 1
 260 430 l 1
360 430 m 1
 440 430 l 1
 440 350 l 1
 360 350 l 1
 360 430 l 1
60 330 m 1
 140 330 l 1
 140 250 l 1
 60 250 l 1
 60 330 l 1
160 330 m 1
 240 330 l 1
 240 250 l 1
 160 250 l 1
 160 330 l 1
460 330 m 1
 540 330 l 1
 540 250 l 1
 460 250 l 1
 460 330 l 1
60 230 m 1
 140 230 l 1
 140 150 l 1
 60 150 l 1
 60 230 l 1
60 130 m 1
 140 130 l 1
 140 50 l 1
 60 50 l 1
 60 130 l 1
60 30 m 1
 140 30 l 1
 140 -50 l 1
 60 -50 l 1
 60 30 l 1
EndSplineSet
EndChar

StartChar: s
Encoding: 115 115 82
Width: 600
Flags: HW
LayerCount: 2
Fore
SplineSet
160 430 m 1
 240 430 l 1
 240 350 l 1
 160 350 l 1
 160 430 l 1
260 430 m 1
 340 430 l 1
 340 350 l 1
 260 350 l 1
 260 430 l 1
360 430 m 1
 440 430 l 1
 440 350 l 1
 360 350 l 1
 360 430 l 1
60 330 m 1
 140 330 l 1
 140 250 l 1
 60 250 l 1
 60 330 l 1
160 230 m 1
 240 230 l 1
 240 150 l 1
 160 150 l 1
 160 230 l 1
260 230 m 1
 340 230 l 1
 340 150 l 1
 260 150 l 1
 260 230 l 1
360 230 m 1
 440 230 l 1
 440 150 l 1
 360 150 l 1
 360 230 l 1
460 130 m 1
 540 130 l 1
 540 50 l 1
 460 50 l 1
 460 130 l 1
60 30 m 1
 140 30 l 1
 140 -50 l 1
 60 -50 l 1
 60 30 l 1
160 30 m 1
 240 30 l 1
 240 -50 l 1
 160 -50 l 1
 160 30 l 1
260 30 m 1
 340 30 l 1
 340 -50 l 1
 260 -50 l 1
 260 30 l 1
360 30 m 1
 440 30 l 1
 440 -50 l 1
 360 -50 l 1
 360 30 l 1
EndSplineSet
EndChar

StartChar: t
Encoding: 116 116 83
Width: 600
Flags: HW
LayerCount: 2
Fore
SplineSet
210 630 m 1
 290 630 l 1
 290 550 l 1
 210 550 l 1
 210 630 l 1
210 530 m 1
 290 530 l 1
 290 450 l 1
 210 450 l 1
 210 530 l 1
110 430 m 1
 190 430 l 1
 190 350 l 1
 110 350 l 1
 110 430 l 1
210 430 m 1
 290 430 l 1
 290 350 l 1
 210 350 l 1
 210 430 l 1
310 430 m 1
 390 430 l 1
 390 350 l 1
 310 350 l 1
 310 430 l 1
210 330 m 1
 290 330 l 1
 290 250 l 1
 210 250 l 1
 210 330 l 1
210 230 m 1
 290 230 l 1
 290 150 l 1
 210 150 l 1
 210 230 l 1
210 130 m 1
 290 130 l 1
 290 50 l 1
 210 50 l 1
 210 130 l 1
410 130 m 1
 490 130 l 1
 490 50 l 1
 410 50 l 1
 410 130 l 1
210 30 m 1
 290 30 l 1
 290 -50 l 1
 210 -50 l 1
 210 30 l 1
310 30 m 1
 390 30 l 1
 390 -50 l 1
 310 -50 l 1
 310 30 l 1
EndSplineSet
EndChar

StartChar: u
Encoding: 117 117 84
Width: 600
Flags: HW
LayerCount: 2
Fore
SplineSet
60 430 m 1
 140 430 l 1
 140 350 l 1
 60 350 l 1
 60 430 l 1
460 430 m 1
 540 430 l 1
 540 350 l 1
 460 350 l 1
 460 430 l 1
60 330 m 1
 140 330 l 1
 140 250 l 1
 60 250 l 1
 60 330 l 1
460 330 m 1
 540 330 l 1
 540 250 l 1
 460 250 l 1
 460 330 l 1
60 230 m 1
 140 230 l 1
 140 150 l 1
 60 150 l 1
 60 230 l 1
460 230 m 1
 540 230 l 1
 540 150 l 1
 460 150 l 1
 460 230 l 1
60 130 m 1
 140 130 l 1
 140 50 l 1
 60 50 l 1
 60 130 l 1
360 130 m 1
 440 130 l 1
 440 50 l 1
 360 50 l 1
 360 130 l 1
460 130 m 1
 540 130 l 1
 540 50 l 1
 460 50 l 1
 460 130 l 1
160 30 m 1
 240 30 l 1
 240 -50 l 1
 160 -50 l 1
 160 30 l 1
260 30 m 1
 340 30 l 1
 340 -50 l 1
 260 -50 l 1
 260 30 l 1
460 30 m 1
 540 30 l 1
 540 -50 l 1
 460 -50 l 1
 460 30 l 1
EndSplineSet
EndChar

StartChar: v
Encoding: 118 118 85
Width: 600
Flags: HW
LayerCount: 2
Fore
SplineSet
60 430 m 1
 140 430 l 1
 140 350 l 1
 60 350 l 1
 60 430 l 1
460 430 m 1
 540 430 l 1
 540 350 l 1
 460 350 l 1
 460 430 l 1
60 330 m 1
 140 330 l 1
 140 250 l 1
 60 250 l 1
 60 330 l 1
460 330 m 1
 540 330 l 1
 540 250 l 1
 460 250 l 1
 460 330 l 1
60 230 m 1
 140 230 l 1
 140 150 l 1
 60 150 l 1
 60 230 l 1
460 230 m 1
 540 230 l 1
 540 150 l 1
 460 150 l 1
 460 230 l 1
160 130 m 1
 240 130 l 1
 240 50 l 1
 160 50 l 1
 160 130 l 1
360 130 m 1
 440 130 l 1
 440 50 l 1
 360 50 l 1
 360 130 l 1
260 30 m 1
 340 30 l 1
 340 -50 l 1
 260 -50 l 1
 260 30 l 1
EndSplineSet
EndChar

StartChar: w
Encoding: 119 119 86
Width: 600
Flags: HW
LayerCount: 2
Fore
SplineSet
60 430 m 1
 140 430 l 1
 140 350 l 1
 60 350 l 1
 60 430 l 1
460 430 m 1
 540 430 l 1
 540 350 l 1
 460 350 l 1
 460 430 l 1
60 330 m 1
 140 330 l 1
 140 250 l 1
 60 250 l 1
 60 330 l 1
460 330 m 1
 540 330 l 1
 540 250 l 1
 460 250 l 1
 460 330 l 1
60 230 m 1
 140 230 l 1
 140 150 l 1
 60 150 l 1
 60 230 l 1
260 230 m 1
 340 230 l 1
 340 150 l 1
 260 150 l 1
 260 230 l 1
460 230 m 1
 540 230 l 1
 540 150 l 1
 460 150 l 1
 460 230 l 1
60 130 m 1
 140 130 l 1
 140 50 l 1
 60 50 l 1
 60 130 l 1
260 130 m 1
 340 130 l 1
 340 50 l 1
 260 50 l 1
 260 130 l 1
460 130 m 1
 540 130 l 1
 540 50 l 1
 460 50 l 1
 460 130 l 1
160 30 m 1
 240 30 l 1
 240 -50 l 1
 160 -50 l 1
 160 30 l 1
360 30 m 1
 440 30 l 1
 440 -50 l 1
 360 -50 l 1
 360 30 l 1
EndSplineSet
EndChar

StartChar: x
Encoding: 120 120 87
Width: 600
Flags: HW
LayerCount: 2
Fore
SplineSet
60 430 m 1
 140 430 l 1
 140 350 l 1
 60 350 l 1
 60 430 l 1
460 430 m 1
 540 430 l 1
 540 350 l 1
 460 350 l 1
 460 430 l 1
160 330 m 1
 240 330 l 1
 240 250 l 1
 160 250 l 1
 160 330 l 1
360 330 m 1
 440 330 l 1
 440 250 l 1
 360 250 l 1
 360 330 l 1
260 230 m 1
 340 230 l 1
 340 150 l 1
 260 150 l 1
 260 230 l 1
160 130 m 1
 240 130 l 1
 240 50 l 1
 160 50 l 1
 160 130 l 1
360 130 m 1
 440 130 l 1
 440 50 l 1
 360 50 l 1
 360 130 l 1
60 30 m 1
 140 30 l 1
 140 -50 l 1
 60 -50 l 1
 60 30 l 1
460 30 m 1
 540 30 l 1
 540 -50 l 1
 460 -50 l 1
 460 30 l 1
EndSplineSet
EndChar

StartChar: y
Encoding: 121 121 88
Width: 600
Flags: HW
LayerCount: 2
Fore
SplineSet
60 430 m 1
 140 430 l 1
 140 350 l 1
 60 350 l 1
 60 430 l 1
460 430 m 1
 540 430 l 1
 540 350 l 1
 460 350 l 1
 460 430 l 1
60 330 m 1
 140 330 l 1
 140 250 l 1
 60 250 l 1
 60 330 l 1
460 330 m 1
 540 330 l 1
 540 250 l 1
 460 250 l 1
 460 330 l 1
160 230 m 1
 240 230 l 1
 240 150 l 1
 160 150 l 1
 160 230 l 1
260 230 m 1
 340 230 l 1
 340 150 l 1
 260 150 l 1
 260 230 l 1
360 230 m 1
 440 230 l 1
 440 150 l 1
 360 150 l 1
 360 230 l 1
460 230 m 1
 540 230 l 1
 540 150 l 1
 460 150 l 1
 460 230 l 1
460 130 m 1
 540 130 l 1
 540 50 l 1
 460 50 l 1
 460 130 l 1
160 30 m 1
 240 30 l 1
 240 -50 l 1
 160 -50 l 1
 160 30 l 1
260 30 m 1
 340 30 l 1
 340 -50 l 1
 260 -50 l 1
 260 30 l 1
360 30 m 1
 440 30 l 1
 440 -50 l 1
 360 -50 l 1
 360 30 l 1
EndSplineSet
EndChar

StartChar: z
Encoding: 122 122 89
Width: 600
Flags: HW
LayerCount: 2
Fore
SplineSet
60 430 m 1
 140 430 l 1
 140 350 l 1
 60 350 l 1
 60 430 l 1
160 430 m 1
 240 430 l 1
 240 350 l 1
 160 350 l 1
 160 430 l 1
260 430 m 1
 340 430 l 1
 340 350 l 1
 260 350 l 1
 260 430 l 1
360 430 m 1
 440 430 l 1
 440 350 l 1
 360 350 l 1
 360 430 l 1
460 430 m 1
 540 430 l 1
 540 350 l 1
 460 350 l 1
 460 430 l 1
360 330 m 1
 440 330 l 1
 440 250 l 1
 360 250 l 1
 360 330 l 1
260 230 m 1
 340 230 l 1
 340 150 l 1
 260 150 l 1
 260 230 l 1
160 130 m 1
 240 130 l 1
 240 50 l 1
 160 50 l 1
 160 130 l 1
60 30 m 1
 140 30 l 1
 140 -50 l 1
 60 -50 l 1
 60 30 l 1
160 30 m 1
 240 30 l 1
 240 -50 l 1
 160 -50 l 1
 160 30 l 1
260 30 m 1
 340 30 l 1
 340 -50 l 1
 260 -50 l 1
 260 30 l 1
360 30 m 1
 440 30 l 1
 440 -50 l 1
 360 -50 l 1
 360 30 l 1
460 30 m 1
 540 30 l 1
 540 -50 l 1
 460 -50 l 1
 460 30 l 1
EndSplineSet
EndChar

StartChar: braceleft
Encoding: 123 123 90
Width: 600
Flags: HW
LayerCount: 2
Fore
SplineSet
360 630 m 1
 440 630 l 1
 440 550 l 1
 360 550 l 1
 360 630 l 1
260 530 m 1
 340 530 l 1
 340 450 l 1
 260 450 l 1
 260 530 l 1
260 430 m 1
 340 430 l 1
 340 350 l 1
 260 350 l 1
 260 430 l 1
160 330 m 1
 240 330 l 1
 240 250 l 1
 160 250 l 1
 160 330 l 1
260 230 m 1
 340 230 l 1
 340 150 l 1
 260 150 l 1
 260 230 l 1
260 130 m 1
 340 130 l 1
 340 50 l 1
 260 50 l 1
 260 130 l 1
360 30 m 1
 440 30 l 1
 440 -50 l 1
 360 -50 l 1
 360 30 l 1
EndSplineSet
EndChar

StartChar: bar
Encoding: 124 124 91
Width: 600
Flags: HW
LayerCount: 2
Fore
SplineSet
260 630 m 1
 340 630 l 1
 340 550 l 1
 260 550 l 1
 260 630 l 1
260 530 m 1
 340 530 l 1
 340 450 l 1
 260 450 l 1
 260 530 l 1
260 430 m 1
 340 430 l 1
 340 350 l 1
 260 350 l 1
 260 430 l 1
260 330 m 1
 340 330 l 1
 340 250 l 1
 260 250 l 1
 260 330 l 1
260 230 m 1
 340 230 l 1
 340 150 l 1
 260 150 l 1
 260 230 l 1
260 130 m 1
 340 130 l 1
 340 50 l 1
 260 50 l 1
 260 130 l 1
260 30 m 1
 340 30 l 1
 340 -50 l 1
 260 -50 l 1
 260 30 l 1
EndSplineSet
EndChar

StartChar: braceright
Encoding: 125 125 92
Width: 600
Flags: HW
LayerCount: 2
Fore
SplineSet
160 630 m 1
 240 630 l 1
 240 550 l 1
 160 550 l 1
 160 630 l 1
260 530 m 1
 340 530 l 1
 340 450 l 1
 260 450 l 1
 260 530 l 1
260 430 m 1
 340 430 l 1
 340 350 l 1
 260 350 l 1
 260 430 l 1
360 330 m 1
 440 330 l 1
 440 250 l 1
 360 250 l 1
 360 330 l 1
260 230 m 1
 340 230 l 1
 340 150 l 1
 260 150 l 1
 260 230 l 1
260 130 m 1
 340 130 l 1
 340 50 l 1
 260 50 l 1
 260 130 l 1
160 30 m 1
 240 30 l 1
 240 -50 l 1
 160 -50 l 1
 160 30 l 1
EndSplineSet
EndChar

